<svg id="Group_3391" data-name="Group 3391" xmlns="http://www.w3.org/2000/svg" xmlns:xlink="http://www.w3.org/1999/xlink" width="32.594" height="32.594" viewBox="0 0 32.594 32.594">
  <defs>
    <clipPath id="clip-path">
      <rect id="Rectangle_92" data-name="Rectangle 92" width="32.594" height="32.594" fill="#fff"/>
    </clipPath>
  </defs>
  <g id="Group_3390" data-name="Group 3390" clip-path="url(#clip-path)">
    <path id="Path_110" data-name="Path 110" d="M16.317,0A16.3,16.3,0,1,1,0,16.266,16.29,16.29,0,0,1,16.317,0m3.33,22.874c-.038.092-.06.16-.094.222-.257.478-.5.967-.782,1.43a1.517,1.517,0,0,1-.822.654c-.351.117-.509.036-.634-.314a4.285,4.285,0,0,1-.2-2.088c.139-.934.338-1.859.521-2.786.241-1.219.542-2.43.724-3.658a4.4,4.4,0,0,0-.961-3.641,2.121,2.121,0,0,0-1.742-.837,2.516,2.516,0,0,0-1.17.311,9.028,9.028,0,0,0-2.4,2.162.169.169,0,0,0,0,.163c.241.268.493.528.753.8a2.241,2.241,0,0,1,1.078-.63c.612-.16.762-.065.725.573a11.5,11.5,0,0,1-.209,1.642c-.315,1.531-.666,3.055-.994,4.583a11.931,11.931,0,0,0-.375,2.98,2.191,2.191,0,0,0,1.616,2.188,4.3,4.3,0,0,0,4.5-.87,6.75,6.75,0,0,0,1.36-2.118c.019-.038-.023-.137-.066-.17-.26-.2-.528-.386-.824-.6M14.042,8.09c.023.187.031.378.071.561a2.015,2.015,0,0,0,1.482,1.71,2.418,2.418,0,0,0,2.493-.966,2.587,2.587,0,0,0,.055-2.837,2.292,2.292,0,0,0-4.1,1.532" transform="translate(0 0.001)" fill="#fff"/>
  </g>
</svg>
