<svg id="Group_3433" data-name="Group 3433" xmlns="http://www.w3.org/2000/svg" xmlns:xlink="http://www.w3.org/1999/xlink" width="12.257" height="31.143" viewBox="0 0 12.257 31.143">
  <defs>
    <clipPath id="clip-path">
      <rect id="Rectangle_108" data-name="Rectangle 108" width="12.257" height="31.143" fill="#63646a"/>
    </clipPath>
  </defs>
  <g id="Group_3432" data-name="Group 3432" clip-path="url(#clip-path)">
    <path id="Path_138" data-name="Path 138" d="M1.548,97.654c.09-.268.175-.525.262-.781a.365.365,0,0,0,.034-.084c.01-.2.146-.238.312-.263q1.367-.2,2.731-.413C5.6,96,6.3,95.879,7.01,95.764c.559-.091,1.115-.217,1.678-.258a12.356,12.356,0,0,1,1.462.047c.138.006.274.029.409.043-.066.227-.132.449-.194.672-.145.521-.287,1.042-.433,1.563q-.206.738-.416,1.474-.323,1.13-.65,2.258c-.13.449-.266.9-.395,1.345-.2.682-.384,1.366-.579,2.049-.221.77-.446,1.538-.669,2.307-.307,1.06-.624,2.117-.918,3.18-.2.713-.364,1.434-.539,2.153a3.016,3.016,0,0,0-.042.361.679.679,0,0,0,.44.71.567.567,0,0,0,.4,0,1.709,1.709,0,0,0,.471-.263,6.433,6.433,0,0,0,1.232-1.3c.393-.528.761-1.074,1.135-1.616.043-.062.068-.068.132-.034.284.148.568.294.857.431.088.042.095.077.049.155a14.572,14.572,0,0,1-3.28,4.016,6.946,6.946,0,0,1-3.179,1.533,4.6,4.6,0,0,1-1.37.039,2.92,2.92,0,0,1-1.7-.744,2.678,2.678,0,0,1-.9-2.078,7.664,7.664,0,0,1,.372-2c.352-1.223.71-2.444,1.064-3.666.09-.311.171-.625.256-.938.009-.033.017-.067.027-.1.209-.7.423-1.389.627-2.086q.418-1.433.823-2.87c.2-.716.411-1.431.584-2.155a6.227,6.227,0,0,0,.13-1.068,1.166,1.166,0,0,0-.715-1.112,2.273,2.273,0,0,0-1.216-.178c-.129,0-.257.012-.4.019" transform="translate(0.001 -85.521)" fill="#63646a"/>
    <path id="Path_139" data-name="Path 139" d="M60.231.722c0-.062-.006-.124-.01-.216a.8.8,0,0,1,.189.1,6.588,6.588,0,0,1,.645.638,3.206,3.206,0,0,1-1.011,4.881,3.186,3.186,0,0,1-4.5-1.653A3.258,3.258,0,0,1,57.749.1a3.147,3.147,0,0,1,2.317.281c.08.044.142.1.108.207-.012.039.012.09.019.135l.037,0" transform="translate(-49.524 0)" fill="#63646a"/>
  </g>
</svg>
