<svg id="Group_20" data-name="Group 20" xmlns="http://www.w3.org/2000/svg" xmlns:xlink="http://www.w3.org/1999/xlink" width="9.753" height="16.82" viewBox="0 0 9.753 16.82">
  <defs>
    <clipPath id="clip-path">
      <rect id="Rectangle_14" data-name="Rectangle 14" width="9.753" height="16.82" fill="#001243"/>
    </clipPath>
  </defs>
  <g id="Group_18" data-name="Group 18" transform="translate(0)" clip-path="url(#clip-path)">
    <path id="Path_6" data-name="Path 6" d="M9.753,8.415a1.244,1.244,0,0,1-.373.908q-1.3,1.3-2.6,2.593-1.036,1.034-2.071,2.07L2.285,16.408a1.342,1.342,0,0,1-.677.382,1.242,1.242,0,0,1-1.071-.262,1.377,1.377,0,0,1-.522-.852,1.123,1.123,0,0,1,.137-.724,2.1,2.1,0,0,1,.417-.511Q1.8,13.217,3.031,11.994q1.181-1.176,2.359-2.354.554-.553,1.109-1.1c.116-.115.116-.113,0-.227L4.394,6.21,2.009,3.829C1.471,3.293.932,2.758.4,2.22A1.3,1.3,0,0,1,0,1.395,1.114,1.114,0,0,1,.162.755,1.557,1.557,0,0,1,.828.12,1.1,1.1,0,0,1,1.847.129a1.728,1.728,0,0,1,.485.356Q3.449,1.6,4.567,2.713L6.991,5.135q1.19,1.189,2.38,2.376a1.21,1.21,0,0,1,.381.9" transform="translate(0 0)" fill="#001243"/>
  </g>
</svg>
