<svg xmlns="http://www.w3.org/2000/svg" xmlns:xlink="http://www.w3.org/1999/xlink" width="34" height="34" viewBox="0 0 34 34">
  <defs>
    <clipPath id="clip-path">
      <rect id="Rectangle_405" data-name="Rectangle 405" width="18.384" height="13.87" fill="#f06463"/>
    </clipPath>
  </defs>
  <g id="Group_3528" data-name="Group 3528" transform="translate(-249 -334)">
    <circle id="Ellipse_19" data-name="Ellipse 19" cx="17" cy="17" r="17" transform="translate(249 334)" fill="#fff"/>
    <g id="Group_3526" data-name="Group 3526" transform="translate(256.808 344.065)">
      <g id="Group_3525" data-name="Group 3525" transform="translate(0 0)" clip-path="url(#clip-path)">
        <path id="Path_1531" data-name="Path 1531" d="M5.7,5.272c.22-.226.427-.443.639-.654.329-.328.663-.651.992-.979s.645-.641.954-.973a1.4,1.4,0,0,0,.359-.832A1.642,1.642,0,0,0,7.247.023,1.61,1.61,0,0,0,5.8.493Q4.627,1.661,3.451,2.829,2.182,4.091.916,5.355a6.654,6.654,0,0,0-.557.583,1.593,1.593,0,0,0,.114,2.14c.433.448.88.881,1.322,1.321l2.65,2.636c.479.476.949.961,1.44,1.424a1.69,1.69,0,0,0,2.359-.147A1.643,1.643,0,0,0,8.186,11.1C7.5,10.426,6.827,9.745,6.149,9.067,6,8.922,5.86,8.775,5.7,8.618c.133-.008.256-.022.379-.022q1.942,0,3.884,0l3.21,0c1.158,0,2.316,0,3.474,0a1.679,1.679,0,0,0,1.481-.79,1.616,1.616,0,0,0-.184-1.968,1.676,1.676,0,0,0-1.231-.552c-.6-.012-1.2,0-1.8,0-.431,0-.863-.009-1.294-.008-.663,0-1.326.008-1.989.008-.442,0-.884-.008-1.326-.008-.694,0-1.389.007-2.083.008-.445,0-.891-.006-1.336-.007-.372,0-.743,0-1.115,0-.023,0-.047,0-.078-.006" transform="translate(0 -0.001)" fill="#f06463"/>
      </g>
    </g>
  </g>
</svg>
