<svg xmlns="http://www.w3.org/2000/svg" xmlns:xlink="http://www.w3.org/1999/xlink" width="27.766" height="27.771" viewBox="0 0 27.766 27.771">
  <defs>
    <clipPath id="clip-path">
      <rect id="Rectangle_27" data-name="Rectangle 27" width="27.766" height="27.772" fill="#a8b5c8"/>
    </clipPath>
  </defs>
  <g id="Group_47" data-name="Group 47" transform="translate(0 0)">
    <g id="Group_45" data-name="Group 45" transform="translate(0 0)" clip-path="url(#clip-path)">
      <path id="Path_20" data-name="Path 20" d="M32.969,23.191q0,4.1,0,8.209a1.371,1.371,0,0,1-1.116,1.454,2.407,2.407,0,0,1-.455.031q-8.12,0-16.24,0a2.445,2.445,0,0,1-.641-.07,1.3,1.3,0,0,1-.935-1.183c-.02-.806-.016-1.614-.016-2.421q0-6.984,0-13.967a3.834,3.834,0,0,1,.044-.69,1.326,1.326,0,0,1,1.18-1.054c.2-.018.4-.023.6-.023q7.906,0,15.812,0a3.722,3.722,0,0,1,.69.05,1.3,1.3,0,0,1,1.057,1.221c.022.7.01,1.4.01,2.1q0,3.174,0,6.349Zm-16.66-1.4c.07,0,.118.008.166.008H21.54c.348,0,.348,0,.348-.341q0-2.517,0-5.034c0-.066-.008-.132-.013-.2h-.2q-2.6,0-5.2-.005c-.126,0-.186.03-.171.163a1.188,1.188,0,0,1,0,.133l0,4.769v.509m5.582,2.788H16.308v.279q0,2.539,0,5.079c0,.19,0,.191.193.192q2.628,0,5.256.005c.127,0,.131-.056.131-.151q0-2.613,0-5.227v-.177m2.762-5.56h0c0,.876,0,1.751,0,2.627,0,.111.023.156.146.156q2.613-.007,5.225,0c.155,0,.2-.042.2-.194q-.008-2.627-.006-5.254c0-.086-.018-.119-.115-.119q-2.642,0-5.284-.01c-.132,0-.164.04-.163.169.006.876,0,1.752,0,2.627m.01,5.559v5.538a.551.551,0,0,0,.069.01q2.671,0,5.342,0c.121,0,.144-.041.144-.154,0-1.373,0-2.745,0-4.118,0-.422,0-.844,0-1.281Z" transform="translate(-9.374 -9.31)" fill="#a8b5c8"/>
      <path id="Path_21" data-name="Path 21" d="M5.792.019c.654,0,1.309-.008,1.963,0a1.361,1.361,0,0,1,1.28,1.356,1.332,1.332,0,0,1-.781,1.231,1.419,1.419,0,0,1-.679.164c-1.122-.008-2.245.017-3.367-.01A1.417,1.417,0,0,0,2.782,4.186c.027,1.146.007,2.294.007,3.44a1.426,1.426,0,0,1-1.1,1.35,1.369,1.369,0,0,1-1.47-.659,1.3,1.3,0,0,1-.171-.554A34.848,34.848,0,0,1,.084,3.456,3.449,3.449,0,0,1,.741,1.831,4.237,4.237,0,0,1,2.7.275,4.525,4.525,0,0,1,4.374,0c.473,0,.945,0,1.418,0V.019" transform="translate(0 0)" fill="#a8b5c8"/>
      <path id="Path_22" data-name="Path 22" d="M69.69,5.862q0,.945,0,1.889a1.343,1.343,0,0,1-.961,1.23,1.3,1.3,0,0,1-1.418-.4,1.325,1.325,0,0,1-.373-.951q0-1.72,0-3.44A1.348,1.348,0,0,0,65.56,2.81q-1.742,0-3.485,0A1.454,1.454,0,0,1,60.722,1.69a1.412,1.412,0,0,1,.7-1.472A1.153,1.153,0,0,1,61.993.06C63.385.067,64.778.042,66.168.1A3.42,3.42,0,0,1,68.107.93a4.171,4.171,0,0,1,1.518,2.443,5.057,5.057,0,0,1,.075.969c.012.507,0,1.014,0,1.521H69.69" transform="translate(-41.942 -0.042)" fill="#a8b5c8"/>
      <path id="Path_23" data-name="Path 23" d="M5.84,69.647c-.747-.025-1.5-.018-2.241-.088a3.468,3.468,0,0,1-1.076-.327,4.1,4.1,0,0,1-2.162-2.29,4.006,4.006,0,0,1-.267-1.514Q.1,63.67.1,61.913A1.4,1.4,0,0,1,1.422,60.6a1.458,1.458,0,0,1,1.3.842,1.611,1.611,0,0,1,.132.643c-.006,1.137,0,2.274,0,3.411A1.345,1.345,0,0,0,4.2,66.846c1.167,0,2.333,0,3.5.009A1.4,1.4,0,0,1,9.1,68.2,1.352,1.352,0,0,1,7.863,69.6c-.673.02-1.348,0-2.022,0v.048" transform="translate(-0.065 -41.876)" fill="#a8b5c8"/>
      <path id="Path_24" data-name="Path 24" d="M63.86,66.871c.576,0,1.152-.014,1.728,0A1.4,1.4,0,0,0,66.956,65.5c-.023-1.161-.015-2.323,0-3.485a1.4,1.4,0,0,1,1.384-1.393,1.363,1.363,0,0,1,1.356,1.247c.019.836.02,1.673.022,2.51,0,.448-.011.9-.016,1.343a3.716,3.716,0,0,1-.583,1.893,4.147,4.147,0,0,1-2.141,1.771,3.932,3.932,0,0,1-1.413.251c-1.186,0-2.372-.014-3.558-.017a1.4,1.4,0,0,1-1.257-1.051,1.371,1.371,0,0,1,.535-1.416,1.469,1.469,0,0,1,.895-.287c.561.009,1.122,0,1.683,0" transform="translate(-41.952 -41.895)" fill="#a8b5c8"/>
      <path id="Path_25" data-name="Path 25" d="M28.4,29.683a1.384,1.384,0,0,1-1.39-1.349,1.38,1.38,0,1,1,2.759-.027A1.381,1.381,0,0,1,28.4,29.683" transform="translate(-18.663 -18.613)" fill="#a8b5c8"/>
      <path id="Path_26" data-name="Path 26" d="M29.757,55.33A1.385,1.385,0,0,1,28.346,56.7a1.38,1.38,0,0,1,.04-2.759,1.377,1.377,0,0,1,1.371,1.388" transform="translate(-18.665 -37.277)" fill="#a8b5c8"/>
      <path id="Path_27" data-name="Path 27" d="M55.385,29.687a1.379,1.379,0,0,1-1.373-1.361A1.379,1.379,0,0,1,56.77,28.3a1.386,1.386,0,0,1-1.386,1.386" transform="translate(-37.326 -18.616)" fill="#a8b5c8"/>
      <path id="Path_28" data-name="Path 28" d="M54.036,55.3a1.379,1.379,0,0,1,1.356-1.359,1.38,1.38,0,1,1-.016,2.76,1.389,1.389,0,0,1-1.34-1.4" transform="translate(-37.341 -37.277)" fill="#a8b5c8"/>
    </g>
  </g>
</svg>
