<?xml version="1.0" encoding="utf-8"?>
<!-- Generator: Adobe Illustrator 24.0.0, SVG Export Plug-In . SVG Version: 6.00 Build 0)  -->
<svg version="1.1" id="Layer_1" xmlns="http://www.w3.org/2000/svg" xmlns:xlink="http://www.w3.org/1999/xlink" x="0px" y="0px"
	 viewBox="0 0 68 68" style="enable-background:new 0 0 68 68;" xml:space="preserve">
<style type="text/css">
	.st0{clip-path:url(#SVGID_2_);}
	.st1{fill:#FFFFFF;}
</style>
<g id="Group_96" transform="translate(-318 -457)">
	<g id="Group_95" transform="translate(335.905 477.85)">
		<g>
			<defs>
				<rect id="SVGID_1_" x="0" y="0" width="31.8" height="24.3"/>
			</defs>
			<clipPath id="SVGID_2_">
				<use xlink:href="#SVGID_1_"  style="display:none;overflow:visible;"/>
			</clipPath>
			<g id="Group_94" class="st0">
				<path id="Path_103" class="st1" d="M15,23c-0.3-0.3-0.6-0.6-0.9-0.8c-1-0.8-2-1.4-3.2-1.8c-0.5-0.2-1.1-0.4-1.7-0.5
					c-0.7-0.2-1.5-0.3-2.2-0.4c-0.6-0.1-1.1-0.1-1.7-0.1c-0.2,0-0.4,0-0.6-0.1c-0.5-0.1-0.9-0.5-0.9-1c0-0.2,0-0.3,0-0.5
					c0-5.5,0-11,0-16.4c0-0.5,0.2-0.9,0.6-1.2C4.5,0,4.8,0,5,0c0.5,0,0.9,0,1.4,0.1c0.5,0.1,1.1,0.1,1.6,0.2c1.5,0.3,3,0.8,4.3,1.7
					c1,0.7,1.9,1.6,2.6,2.6C14.9,4.8,15,5,15,5.3c0,5.9,0,11.7,0,17.6L15,23"/>
				<path id="Path_104" class="st1" d="M16.8,23v-0.2c0-5.8,0-11.7,0-17.5c0-0.3,0.1-0.6,0.2-0.8c0.9-1.4,2.2-2.5,3.7-3.2
					c1-0.5,2.1-0.8,3.1-1c1-0.2,1.9-0.3,2.9-0.3c0.4,0,0.8,0.1,1.1,0.4c0.2,0.2,0.3,0.5,0.3,0.8c0,0,0,0.1,0,0.1
					c0,5.6,0,11.1,0,16.7c0,0.7-0.5,1.2-1.1,1.3c0,0,0,0-0.1,0c-0.4,0-0.7,0-1.1,0.1c-0.8,0-1.5,0.1-2.3,0.3c-2,0.3-3.9,1.1-5.5,2.3
					c-0.4,0.3-0.7,0.6-1.1,1L16.8,23"/>
				<path id="Path_105" class="st1" d="M18.5,24c0.6-0.6,1.3-1,2-1.4c0.7-0.4,1.4-0.6,2.1-0.8c1-0.3,2.1-0.5,3.2-0.6
					c0.5,0,1.1,0,1.6-0.1c0.5-0.1,1-0.3,1.4-0.6c0.4-0.4,0.7-0.8,0.9-1.3c0.1-0.4,0.2-0.8,0.1-1.3c0-0.2,0-0.4,0-0.6
					c0-4.3,0-8.7,0-13V3.9c0.5-0.1,0.9,0,1.4,0.2c0.4,0.2,0.6,0.6,0.6,1c0,0.1,0,0.1,0,0.2c0,5.9,0,11.8,0,17.6c0,0.3,0,0.6-0.2,0.8
					c-0.2,0.4-0.7,0.6-1.1,0.5c-0.4-0.1-0.7-0.1-1.1-0.2c-0.5-0.1-0.9-0.2-1.4-0.2c-0.6-0.1-1.2-0.2-1.7-0.2
					c-0.6-0.1-1.1-0.1-1.7-0.1c-0.5,0-1,0-1.5,0c-0.8,0-1.6,0.1-2.3,0.1c-0.7,0.1-1.5,0.2-2.2,0.4C18.6,24,18.5,24,18.5,24"/>
				<path id="Path_106" class="st1" d="M13.4,24c-0.1,0-0.2,0-0.3-0.1c-1-0.2-2-0.4-3.1-0.4c-0.4,0-0.9-0.1-1.3-0.1
					c-0.7,0-1.4,0-2.1,0.1c-0.6,0-1.2,0.1-1.8,0.2c-0.6,0.1-1.2,0.2-1.9,0.3C2.5,24,2,24.1,1.6,24.2c-0.3,0.1-0.6,0.1-0.9-0.1
					C0.2,23.9,0,23.5,0,23c0,0,0-0.1,0-0.1C0,17,0,11.1,0,5.3c0-0.3,0.1-0.7,0.3-1c0.2-0.3,0.6-0.4,0.9-0.4c0.2,0,0.4,0,0.6,0
					C1.9,3.9,2,3.9,2,4c0,0.3,0,0.5,0,0.8c0,4.2,0,8.4,0,12.7c0,0.3,0,0.7,0,1c0.1,0.6,0.3,1.2,0.8,1.6C3.1,20.5,3.5,20.8,4,21
					c0.4,0.1,0.7,0.1,1.1,0.1c0.5,0,1.1,0,1.6,0.1c0.6,0.1,1.2,0.2,1.8,0.3c0.7,0.2,1.3,0.4,1.9,0.6C11.5,22.6,12.5,23.2,13.4,24
					C13.3,23.9,13.3,24,13.4,24"/>
			</g>
		</g>
	</g>
</g>
</svg>
