<svg xmlns="http://www.w3.org/2000/svg" xmlns:xlink="http://www.w3.org/1999/xlink" width="68" height="68" viewBox="0 0 68 68">
  <defs>
    <clipPath id="clip-path">
      <circle id="Ellipse_5" data-name="Ellipse 5" cx="34" cy="34" r="34" transform="translate(-0.11 -0.11)" fill="#5078fb"/>
    </clipPath>
    <clipPath id="clip-path-2">
      <rect id="Rectangle_13" data-name="Rectangle 13" width="54.616" height="67.464" fill="#688cfc"/>
    </clipPath>
    <clipPath id="clip-path-5">
      <rect id="Rectangle_87" data-name="Rectangle 87" width="31.813" height="24.269" fill="#fff"/>
    </clipPath>
  </defs>
  <g id="Group_96" data-name="Group 96" transform="translate(-318 -457)">
    <g id="Group_17" data-name="Group 17" transform="translate(318.11 457.11)">
      <circle id="Ellipse_4" data-name="Ellipse 4" cx="34" cy="34" r="34" transform="translate(-0.11 -0.11)" fill="#5078fb"/>
      <g id="Group_1" data-name="Group 1" transform="translate(0)" clip-path="url(#clip-path)">
        <g id="Group_14" data-name="Group 14" transform="translate(4.771 -24.297) rotate(34)" opacity="0.64">
          <g id="Group_11" data-name="Group 11" opacity="0.61" clip-path="url(#clip-path-2)">
            <path id="Path_5" data-name="Path 5" d="M35.781,22.709C39.3,29.3,50.186,28.784,53.668,35.393,55.5,38.873,54.5,43.3,52.21,46.5s-5.65,5.435-8.935,7.6L31.5,61.848c-4.118,2.709-8.528,5.514-13.456,5.613-5.507.111-10.666-3.353-13.665-7.973S.274,49.251.043,43.748C-.5,30.822,4.036,11.4,14.856,2.848a11.762,11.762,0,0,1,14.719-.5c8,5.471,2.392,13.215,6.206,20.365" transform="translate(0 0)" fill="#688cfc"/>
          </g>
        </g>
        <g id="Group_15" data-name="Group 15" transform="translate(2.988 115.546) rotate(-109)" opacity="0.64">
          <g id="Group_11-2" data-name="Group 11" clip-path="url(#clip-path-2)">
            <path id="Path_5-2" data-name="Path 5" d="M35.781,22.709C39.3,29.3,50.186,28.784,53.668,35.393,55.5,38.873,54.5,43.3,52.21,46.5s-5.65,5.435-8.935,7.6L31.5,61.848c-4.118,2.709-8.528,5.514-13.456,5.613-5.507.111-10.666-3.353-13.665-7.973S.274,49.251.043,43.748C-.5,30.822,4.036,11.4,14.856,2.848a11.762,11.762,0,0,1,14.719-.5c8,5.471,2.392,13.215,6.206,20.365" transform="translate(0 0)" fill="#688cfc"/>
          </g>
        </g>
        <g id="Group_16" data-name="Group 16" transform="matrix(0.719, -0.695, 0.695, 0.719, 24.869, 0.354)" opacity="0.39">
          <g id="Group_11-3" data-name="Group 11" clip-path="url(#clip-path-2)">
            <path id="Path_5-3" data-name="Path 5" d="M35.781,22.709C39.3,29.3,50.186,28.784,53.668,35.393,55.5,38.873,54.5,43.3,52.21,46.5s-5.65,5.435-8.935,7.6L31.5,61.848c-4.118,2.709-8.528,5.514-13.456,5.613-5.507.111-10.666-3.353-13.665-7.973S.274,49.251.043,43.748C-.5,30.822,4.036,11.4,14.856,2.848a11.762,11.762,0,0,1,14.719-.5c8,5.471,2.392,13.215,6.206,20.365" transform="translate(0 0)" fill="#688cfc"/>
          </g>
        </g>
      </g>
    </g>
    <g id="Group_95" data-name="Group 95" transform="translate(335.905 477.85)">
      <g id="Group_94" data-name="Group 94" clip-path="url(#clip-path-5)">
        <path id="Path_103" data-name="Path 103" d="M28.107,23.042c-.323-.286-.625-.568-.941-.831a10.922,10.922,0,0,0-3.2-1.828,13.465,13.465,0,0,0-1.66-.526c-.734-.17-1.48-.3-2.227-.4-.566-.073-1.143-.064-1.715-.1a4.791,4.791,0,0,1-.574-.06,1.126,1.126,0,0,1-.935-1.023c-.017-.168-.027-.337-.027-.505q0-8.223,0-16.446A1.256,1.256,0,0,1,17.438.157,1.2,1.2,0,0,1,18.1.01c.451.012.9.016,1.351.064.535.057,1.068.144,1.6.239a11.248,11.248,0,0,1,4.269,1.666,8.782,8.782,0,0,1,2.573,2.61,1.293,1.293,0,0,1,.217.726q-.009,8.78,0,17.559v.168" transform="translate(-13.103 -0.007)" fill="#fff"/>
        <path id="Path_104" data-name="Path 104" d="M75.964,23.046v-.179q0-8.767,0-17.534a1.386,1.386,0,0,1,.24-.791,9.077,9.077,0,0,1,3.651-3.2A12.523,12.523,0,0,1,83,.305a17.99,17.99,0,0,1,2.9-.3,1.253,1.253,0,0,1,1.054.4,1.378,1.378,0,0,1,.3.845c0,.033,0,.066,0,.1q0,8.358,0,16.717a1.205,1.205,0,0,1-1.209,1.267c-.356.024-.713.038-1.069.052a15.63,15.63,0,0,0-2.306.272,12.783,12.783,0,0,0-5.467,2.322c-.392.3-.745.645-1.116.97l-.115.1" transform="translate(-59.155 0)" fill="#fff"/>
        <path id="Path_105" data-name="Path 105" d="M83.514,37.733a8.728,8.728,0,0,1,1.972-1.414,11.01,11.01,0,0,1,2.1-.838,13.594,13.594,0,0,1,3.22-.569c.535-.025,1.071-.044,1.6-.1a2.615,2.615,0,0,0,1.439-.64,2.936,2.936,0,0,0,.9-1.335,4.464,4.464,0,0,0,.143-1.251c.009-.2-.009-.4-.009-.605q0-6.49,0-12.979v-.34a2.705,2.705,0,0,1,1.36.168,1.174,1.174,0,0,1,.606,1.03c0,.061,0,.122,0,.183q0,8.822,0,17.644a1.392,1.392,0,0,1-.185.8A1.087,1.087,0,0,1,95.531,38c-.365-.056-.725-.147-1.089-.213-.456-.083-.913-.167-1.372-.234-.58-.084-1.162-.164-1.746-.22-.551-.053-1.105-.081-1.659-.106-.488-.022-.977-.046-1.464-.029-.783.028-1.569.057-2.347.144-.73.083-1.451.242-2.176.367-.054.01-.109.014-.163.021" transform="translate(-65.039 -13.749)" fill="#fff"/>
        <path id="Path_106" data-name="Path 106" d="M13.362,37.75c-.122-.021-.214-.032-.3-.053a15.175,15.175,0,0,0-3.092-.414c-.432-.011-.863-.074-1.294-.073-.69,0-1.381.023-2.07.061q-.885.048-1.768.154c-.624.074-1.246.17-1.866.274-.471.079-.936.19-1.406.276a1.345,1.345,0,0,1-.91-.059A1.219,1.219,0,0,1,0,36.781c0-.033,0-.066,0-.1q0-8.83,0-17.661a1.294,1.294,0,0,1,.315-.95,1.3,1.3,0,0,1,.918-.4c.2-.01.4,0,.606,0,.1,0,.133.029.131.128-.006.268-.006.536-.006.8q0,6.329,0,12.657c0,.347,0,.7.029,1.042a2.631,2.631,0,0,0,.754,1.64,2.961,2.961,0,0,0,1.261.791,4.566,4.566,0,0,0,1.1.133c.534.042,1.073.033,1.6.1a14.994,14.994,0,0,1,1.812.334,16.994,16.994,0,0,1,1.941.615,9.35,9.35,0,0,1,2.855,1.776.464.464,0,0,1,.042.063" transform="translate(0 -13.758)" fill="#fff"/>
      </g>
    </g>
  </g>
</svg>
