<svg id="Group_3446" data-name="Group 3446" xmlns="http://www.w3.org/2000/svg" xmlns:xlink="http://www.w3.org/1999/xlink" width="35.525" height="28.296" viewBox="0 0 35.525 28.296">
  <defs>
    <clipPath id="clip-path">
      <rect id="Rectangle_112" data-name="Rectangle 112" width="35.525" height="28.296" fill="#fff"/>
    </clipPath>
  </defs>
  <g id="Group_3445" data-name="Group 3445" clip-path="url(#clip-path)">
    <path id="Path_152" data-name="Path 152" d="M0,1.308a.932.932,0,0,0,.08-.174A1.411,1.411,0,0,1,1.489.007C5.017,0,8.546-.01,12.075.015a3.394,3.394,0,0,1,2.44,1q4.531,4.518,9.065,9.033c1.418,1.412,2.843,2.816,4.255,4.235a1.335,1.335,0,0,1-.021,2.094q-4.544,4.547-9.087,9.1c-.81.81-1.613,1.627-2.442,2.416a1.249,1.249,0,0,1-1.825.019c-.18-.154-.352-.317-.52-.484q-2.208-2.2-4.413-4.413Q5.357,18.843,1.19,14.673A3.807,3.807,0,0,1,.076,12.542.732.732,0,0,0,0,12.369V1.308M8.158,5.34a2.748,2.748,0,0,0-.019,5.5,2.707,2.707,0,0,0,2.768-2.761A2.687,2.687,0,0,0,8.158,5.34" transform="translate(0 0)" fill="#fff"/>
    <path id="Path_153" data-name="Path 153" d="M108.5.014l15.319,15.317L112.157,27.113a.111.111,0,0,0,.032.056c.2.2.411.407.618.61a1.33,1.33,0,0,0,2.1.011c.485-.474.958-.96,1.437-1.439l9.621-9.624c.135-.135.275-.265.407-.4a1.349,1.349,0,0,0,0-1.977q-2.968-2.981-5.95-5.95-3.645-3.646-7.285-7.3A3.627,3.627,0,0,0,110.519.016c-.6-.009-1.2,0-1.8,0Z" transform="translate(-91.283 -0.01)" fill="#fff"/>
  </g>
</svg>
