<svg id="Group_3415" data-name="Group 3415" xmlns="http://www.w3.org/2000/svg" xmlns:xlink="http://www.w3.org/1999/xlink" width="19.96" height="20.001" viewBox="0 0 19.96 20.001">
  <defs>
    <clipPath id="clip-path">
      <rect id="Rectangle_97" data-name="Rectangle 97" width="19.96" height="20.001" fill="#3b3d4a"/>
    </clipPath>
  </defs>
  <g id="Group_3414" data-name="Group 3414" clip-path="url(#clip-path)">
    <path id="Path_125" data-name="Path 125" d="M51.995,3.849,50.853,2.567A10.025,10.025,0,0,1,53.794.731,9.756,9.756,0,0,1,59.3.169a10.016,10.016,0,0,1,7.819,7.159,9.78,9.78,0,0,1-.387,6.476,9.955,9.955,0,0,1-4.266,4.874l.7,1.3-.017.014-4.032-.968,1.945-2.972.6,1.117c.148-.1.291-.182.428-.277a8.268,8.268,0,0,0,3.557-5.5,8.505,8.505,0,0,0,.106-1.773,8.346,8.346,0,0,0-.636-2.828,8.376,8.376,0,0,0-4.312-4.378A8.308,8.308,0,0,0,58.57,1.8a8.165,8.165,0,0,0-2.026-.011,7.933,7.933,0,0,0-2.657.78,7.749,7.749,0,0,0-1.855,1.258.233.233,0,0,1-.038.023" transform="translate(-47.536 0)" fill="#3b3d4a"/>
    <path id="Path_126" data-name="Path 126" d="M134.047,51.221v.125q0,2.845,0,5.69a.162.162,0,0,0,.1.169,3.6,3.6,0,0,1,.376.279.184.184,0,0,0,.095.045q1.817,0,3.633,0h.329v.22c0,.271,0,.542,0,.813,0,.076-.018.1-.1.1-.268,0-.536,0-.8,0-.975,0-1.951,0-2.926,0a.385.385,0,0,0-.312.12,1.032,1.032,0,0,1-1.506-.02.961.961,0,0,1,.271-1.525.167.167,0,0,0,.1-.174c-.006-.7,0-1.409,0-2.113q0-1.825,0-3.65c0-.044.006-.075.058-.075h.689" transform="translate(-124.018 -47.88)" fill="#3b3d4a"/>
    <path id="Path_127" data-name="Path 127" d="M5.4,69.287l-.251-.068c-.446-.122-.892-.244-1.338-.363-.059-.016-.07-.037-.057-.1a9.435,9.435,0,0,1,.825-2.273c.214-.415.477-.8.717-1.206.026-.043.051-.053.1-.02q.656.471,1.315.94a.255.255,0,0,1,.021.021A8.263,8.263,0,0,0,5.4,69.287" transform="translate(-3.51 -60.986)" fill="#3b3d4a"/>
    <path id="Path_128" data-name="Path 128" d="M.376,151.125a9.787,9.787,0,0,1-.368-3.063l1.707.063a.6.6,0,0,1,.006.062,8.4,8.4,0,0,0,.209,2.094c.02.086-.014.108-.086.141-.46.216-.917.439-1.375.659l-.093.043" transform="translate(0 -138.405)" fill="#3b3d4a"/>
    <path id="Path_129" data-name="Path 129" d="M13.568,201.936,15,200.921a8.143,8.143,0,0,0,1.329,2.218l-1.3,1.133a10.8,10.8,0,0,1-1.469-2.335" transform="translate(-12.683 -187.817)" fill="#3b3d4a"/>
    <path id="Path_130" data-name="Path 130" d="M61.178,256.37c.308-.427.608-.845.909-1.261.094-.13.1-.133.229-.033a7.9,7.9,0,0,0,1.5.876c.123.056.249.1.394.164l-.641,1.585a10.143,10.143,0,0,1-2.395-1.33" transform="translate(-57.188 -238.374)" fill="#3b3d4a"/>
    <path id="Path_131" data-name="Path 131" d="M126.283,280.265c.041-.228.079-.446.12-.663.06-.322.123-.643.183-.964.008-.046.016-.072.075-.062a8.417,8.417,0,0,0,1.569.105c.125,0,.123,0,.161.117.14.44.282.88.423,1.32.02.062.036.125.056.186s.007.077-.052.078c-.352.008-.7.024-1.055.023a8.36,8.36,0,0,1-1.34-.128c-.042-.007-.085-.008-.142-.012" transform="translate(-118.047 -260.404)" fill="#3b3d4a"/>
  </g>
</svg>
