<svg id="Group_3388" data-name="Group 3388" xmlns="http://www.w3.org/2000/svg" xmlns:xlink="http://www.w3.org/1999/xlink" width="40.125" height="45.31" viewBox="0 0 40.125 45.31">
  <defs>
    <clipPath id="clip-path">
      <rect id="Rectangle_91" data-name="Rectangle 91" width="40.125" height="45.31" fill="none"/>
    </clipPath>
  </defs>
  <g id="Group_3387" data-name="Group 3387" clip-path="url(#clip-path)">
    <path id="Path_108" data-name="Path 108" d="M4.555,38.546c-.74-.227-1.469-.459-2.2-.675a3.235,3.235,0,0,1-2.21-4.047q2.167-7.1,4.352-14.2a2.63,2.63,0,0,0,.1-.753q.01-4.014,0-8.028c0-1.427,0-2.855,0-4.282A3.19,3.19,0,0,1,7.791,3.337c.568-.007,1.137,0,1.711,0,.131-.424.233-.815.372-1.193A3.291,3.291,0,0,1,14.023.164c3.351,1.043,6.71,2.062,10.068,3.084a2.162,2.162,0,0,0,.617.083q3.676.008,7.352,0a3.218,3.218,0,0,1,3.481,3.176.522.522,0,0,0,.3.345c.694.24,1.409.421,2.1.67a3.182,3.182,0,0,1,2.035,3.984c-.866,2.888-1.762,5.767-2.648,8.65-.581,1.893-1.168,3.784-1.744,5.679a1.862,1.862,0,0,0-.057.534q-.005,6.2,0,12.4a3.229,3.229,0,0,1-3.15,3.233c-.436.011-.873.023-1.307,0-.336-.021-.529.057-.588.424a4.054,4.054,0,0,1-.257.814A3.313,3.313,0,0,1,25.879,45.1q-4.9-1.521-9.807-3.02a2.163,2.163,0,0,0-.622-.073c-2.435,0-4.872-.047-7.306.014a3.3,3.3,0,0,1-3.553-3.348.627.627,0,0,0-.035-.129m1.66-15.9v6.941c0,3.049-.006,6.1,0,9.146A1.58,1.58,0,0,0,7.932,40.4q12.086,0,24.172,0a1.617,1.617,0,0,0,1.805-1.807q0-6.172,0-12.343,0-9.757,0-19.515a1.61,1.61,0,0,0-1.809-1.8q-3.292,0-6.584,0-8.794,0-17.588,0A1.583,1.583,0,0,0,6.216,6.647c0,.96,0,1.921,0,2.881q0,6.558,0,13.115M4.587,36.888V25.11a.835.835,0,0,0-.216.387Q4,26.7,3.628,27.9c-.648,2.107-1.3,4.211-1.94,6.321a1.581,1.581,0,0,0,.789,1.954c.657.281,1.356.461,2.11.71M35.551,8.457V20.233c.3-.7.515-1.419.735-2.133.719-2.336,1.447-4.669,2.155-7.008a1.6,1.6,0,0,0-.923-2.01c-.627-.237-1.279-.409-1.967-.625M11.242,3.3H18.6c-1.66-.557-3.32-1.076-4.987-1.573A1.7,1.7,0,0,0,11.242,3.3M21.687,42.022l-.031.089,1.353.417,3.649,1.129a1.655,1.655,0,0,0,2.178-1.635Z" transform="translate(-0.001 0)" fill="#fff"/>
    <path id="Path_109" data-name="Path 109" d="M35.913,46.211q0-6.558,0-13.115c0-.96,0-1.921,0-2.881A1.583,1.583,0,0,1,37.628,28.5q8.794-.006,17.588,0,3.292,0,6.584,0a1.61,1.61,0,0,1,1.809,1.8q0,9.757,0,19.515,0,6.172,0,12.343A1.617,1.617,0,0,1,61.8,63.966q-12.086,0-24.172,0A1.58,1.58,0,0,1,35.917,62.3c-.009-3.048,0-6.1,0-9.146q0-3.471,0-6.941m13.9-14.434H41.6c-.661,0-1.323-.006-1.984,0a.758.758,0,0,0-.769.578.69.69,0,0,0,.271.837,1.422,1.422,0,0,0,.716.193c1.893.008,3.786-.013,5.679-.012q6.424,0,12.849.021c.511,0,1.023.014,1.533,0a.806.806,0,0,0,.009-1.612c-.135-.01-.271,0-.406,0H49.81m-.066,5.137H54.3q2.727,0,5.455,0c.581,0,.949-.31.956-.787.008-.5-.358-.813-.968-.822-.12,0-.24,0-.361,0H46.623q-3.4,0-6.807,0a.889.889,0,0,0-.913.444c-.3.6.123,1.168.878,1.168q4.982,0,9.963,0m.017,3.518h9.783a3.945,3.945,0,0,0,.45-.007.793.793,0,0,0,.713-.748.774.774,0,0,0-.628-.816,2.383,2.383,0,0,0-.492-.034q-9.827,0-19.655,0a2.792,2.792,0,0,0-.4.014.8.8,0,0,0,.048,1.587c.134.011.27,0,.405,0h9.781m-.047,7.042h3.606q3.245,0,6.491,0a.8.8,0,0,0,.9-.79.824.824,0,0,0-.849-.811c-.09-.007-.18,0-.27,0q-9.826,0-19.652,0a1.85,1.85,0,0,0-.66.1.709.709,0,0,0-.453.8.728.728,0,0,0,.66.691,4.661,4.661,0,0,0,.63.013h9.6m0-3.526h7.21c.991,0,1.983.006,2.974,0a.771.771,0,0,0,.81-.736A.787.787,0,0,0,60,42.367a2.921,2.921,0,0,0-.449-.017H52.863q-6.194,0-12.389,0a3.527,3.527,0,0,0-1.026.055.956.956,0,0,0-.57.539.931.931,0,0,0,.195.759,1.079,1.079,0,0,0,.728.234c3.3.015,6.608.01,9.912.01m-1.029,12.1c-.727-.943-1.418-1.849-2.12-2.746-.375-.478-.812-.564-1.2-.266-.414.314-.436.762-.052,1.262q1.262,1.643,2.531,3.281c.586.759,1.056.769,1.654.032q1.858-2.29,3.713-4.583.9-1.119,1.783-2.256a.7.7,0,0,0-.1-.976A.707.707,0,0,0,53.9,49.7a1.954,1.954,0,0,0-.375.383q-1.579,1.939-3.151,3.883c-.555.684-1.113,1.367-1.694,2.079m0,3.5v.01c-1.094,0-2.188-.006-3.282.007a.953.953,0,0,0-.5.151.707.707,0,0,0-.3.868.863.863,0,0,0,.881.571q3.15.008,6.3,0c.592,0,.924-.305.922-.81s-.321-.795-.923-.8c-1.035,0-2.07,0-3.1,0" transform="translate(-29.7 -23.567)" fill="#fff"/>
  </g>
</svg>
