<svg xmlns="http://www.w3.org/2000/svg" xmlns:xlink="http://www.w3.org/1999/xlink" width="20.822" height="20.93" viewBox="0 0 20.822 20.93">
  <defs>
    <clipPath id="clip-path">
      <rect id="Rectangle_99" data-name="Rectangle 99" width="20.822" height="20.93" fill="#de0000"/>
    </clipPath>
  </defs>
  <g id="Group_3418" data-name="Group 3418" clip-path="url(#clip-path)">
    <path id="Path_133" data-name="Path 133" d="M10.392,0c.16,0,.321.006.481,0a1.951,1.951,0,0,1,.75.121.888.888,0,0,0,.317.034A3.242,3.242,0,0,1,12.862.3c.29.075.582.147.867.24.209.068.406.171.61.253.074.03.159.031.23.065q.358.17.708.356c.154.081.3.169.451.262.166.1.33.213.49.327.216.154.426.315.639.473a7.776,7.776,0,0,1,1.065.964c.243.263.483.53.708.807a7.594,7.594,0,0,1,.485.679c.153.238.292.485.427.734.114.21.214.427.319.642.087.176.173.352.258.529a.443.443,0,0,1,.033.11.53.53,0,0,0,.136.354.1.1,0,0,1,.021.052c.072.31.143.621.216.931.027.115.06.228.086.344.02.093.035.187.048.281.03.21.044.425.091.631a4.775,4.775,0,0,1,.072,1.028c0,.168,0,.337,0,.505a3.076,3.076,0,0,1-.1.908,4.366,4.366,0,0,0-.052.454,7.728,7.728,0,0,1-.2.927,4.376,4.376,0,0,1-.182.618c-.1.206-.1.448-.246.63a.105.105,0,0,0-.019.042,5,5,0,0,1-.382.875,4.776,4.776,0,0,1-.27.443c-.079.133-.145.274-.227.406s-.162.24-.249.355c-.2.263-.4.528-.607.783-.122.149-.264.282-.4.42s-.278.292-.427.427c-.164.15-.338.29-.509.432-.1.087-.209.174-.317.257-.081.062-.165.12-.251.175-.226.145-.451.291-.68.43-.246.149-.493.3-.748.432a5.713,5.713,0,0,1-.532.216c-.035.014-.072.026-.107.039-.116.044-.232.086-.348.131-.062.025-.121.057-.183.082a1.672,1.672,0,0,1-.17.062c-.153.045-.305.091-.46.129-.181.044-.364.085-.547.118-.262.048-.53.07-.788.134a6.715,6.715,0,0,1-2.219.082c-.376-.032-.752-.08-1.123-.149-.309-.057-.612-.154-.917-.233-.085-.022-.171-.036-.255-.061-.122-.037-.243-.08-.364-.121-.043-.014-.086-.029-.129-.045L6.5,20.145c-.011,0-.02-.012-.03-.017-.19-.075-.382-.144-.568-.226a4.131,4.131,0,0,1-.4-.214q-.4-.233-.79-.474a2.823,2.823,0,0,1-.251-.179C4.1,18.76,3.736,18.5,3.4,18.2c-.3-.265-.555-.572-.826-.865a4.633,4.633,0,0,1-.378-.443c-.251-.352-.5-.707-.731-1.071-.129-.2-.207-.435-.341-.632a5.85,5.85,0,0,1-.449-.99,7.009,7.009,0,0,1-.226-.694.376.376,0,0,0-.028-.087,1.223,1.223,0,0,1-.138-.551.317.317,0,0,0-.014-.113,2.314,2.314,0,0,1-.16-.941c-.03-.281-.082-.561-.1-.842a8.386,8.386,0,0,1,0-.962c.026-.43.08-.859.122-1.289a1.135,1.135,0,0,1,.112-.485,1.3,1.3,0,0,0,.062-.347c.023-.1.061-.2.094-.3.006-.018.021-.033.026-.051C.5,7.29.57,7.04.652,6.8c.064-.191.14-.379.22-.565s.177-.386.273-.575c.072-.142.154-.279.235-.416s.182-.3.279-.444c.125-.186.246-.376.386-.551.244-.306.5-.6.753-.9.076-.09.16-.174.243-.259.114-.115.227-.233.348-.341.156-.139.32-.27.481-.4.1-.085.2-.174.308-.252s.251-.169.376-.253c.1-.065.193-.132.292-.194.218-.138.434-.282.659-.408.161-.09.335-.156.5-.234.041-.019.082-.04.121-.062A.729.729,0,0,1,6.216.88c.2-.076.4-.152.595-.223.258-.091.517-.177.776-.265A.387.387,0,0,1,7.663.37a7.578,7.578,0,0,1,1.2-.22A1.48,1.48,0,0,0,9.131.1c.214-.032.428-.072.643-.087s.412,0,.619,0V0m5.372,7.2a1.014,1.014,0,0,0-.107-.186c-.124-.134-.257-.26-.387-.39-.369-.37-.736-.742-1.107-1.11A.557.557,0,0,0,14,5.4a.153.153,0,0,0-.134.01c-.182.165-.358.338-.533.511-.149.146-.293.3-.44.445l-.393.394-.433.435c-.134.134-.27.266-.4.4s-.273.284-.411.424-.3.3-.449.451c-.114.111-.233.217-.354.32a.094.094,0,0,1-.088,0,1.176,1.176,0,0,1-.163-.14c-.235-.238-.468-.479-.7-.718-.291-.3-.581-.594-.874-.887Q7.958,6.384,7.3,5.728c-.113-.112-.226-.225-.344-.331a.121.121,0,0,0-.109-.022,1.222,1.222,0,0,0-.223.175c-.189.192-.37.392-.559.584-.214.216-.434.426-.65.64-.075.074-.144.156-.226.222a.273.273,0,0,0-.019.393c.209.206.414.415.62.624.222.225.44.454.664.678.307.307.619.61.928.916.335.333.673.663,1,1a.269.269,0,0,1,.053.232c-.031.081-.125.138-.193.2-.139.134-.281.264-.416.4s-.251.274-.383.405c-.25.247-.507.486-.756.734-.2.2-.39.411-.587.614-.216.222-.437.44-.656.659a2.02,2.02,0,0,1-.213.2.29.29,0,0,0-.054.468c.171.173.346.343.519.514l.907.891a.774.774,0,0,0,.128.127c.142.084.238.062.374-.074.264-.265.527-.532.792-.8q.724-.726,1.449-1.452c.3-.3.6-.612.9-.911.141-.138.207-.128.345.011q.367.37.735.739L13.146,15.4c.213.214.425.429.641.64a.251.251,0,0,0,.378-.036,3.151,3.151,0,0,1,.241-.256c.138-.141.278-.281.417-.422s.278-.28.413-.423c.167-.177.331-.357.495-.537.018-.02.036-.063.026-.079a1.1,1.1,0,0,0-.151-.224c-.2-.211-.412-.415-.619-.622l-.54-.543c-.15-.151-.3-.3-.451-.451-.183-.184-.364-.369-.547-.553-.152-.153-.307-.3-.459-.458-.176-.179-.345-.365-.526-.538-.131-.125-.141-.168-.016-.293L13.64,9.414q1-1,2-2.007a1.087,1.087,0,0,0,.126-.2" transform="translate(0 0)" fill="#de0000"/>
  </g>
</svg>
