<svg id="Group_3439" data-name="Group 3439" xmlns="http://www.w3.org/2000/svg" xmlns:xlink="http://www.w3.org/1999/xlink" width="23.982" height="22.121" viewBox="0 0 23.982 22.121">
  <defs>
    <clipPath id="clip-path">
      <rect id="Rectangle_110" data-name="Rectangle 110" width="23.982" height="22.121" fill="#3b3d4a"/>
    </clipPath>
  </defs>
  <g id="Group_3438" data-name="Group 3438" clip-path="url(#clip-path)">
    <path id="Path_149" data-name="Path 149" d="M77,3.685c0-.9,0-1.753,0-2.607,0-.55.16-.849.557-1a.966.966,0,0,1,1.116.291q2.639,2.655,5.291,5.3a.948.948,0,0,1-.006,1.578q-2.66,2.655-5.312,5.317a.946.946,0,0,1-.9.328A.88.88,0,0,1,77,11.96c-.007-.806,0-1.613,0-2.419,0-.095,0-.19,0-.273-.031-.023-.046-.043-.061-.043a23.389,23.389,0,0,0-5.419.291,9.16,9.16,0,0,0-2.043.738,4.21,4.21,0,0,0-2.147,3.2,13.314,13.314,0,0,0-.037,4.184c.008.067.017.133.027.2a.456.456,0,0,1-.294.557.465.465,0,0,1-.589-.228A12.739,12.739,0,0,1,64.2,12.952a8.13,8.13,0,0,1,1.3-6.117A6.8,6.8,0,0,1,68.616,4.6a13.42,13.42,0,0,1,4.3-.848c1.236-.063,2.475-.049,3.713-.069.113,0,.226,0,.368,0" transform="translate(-60.398 0)" fill="#3b3d4a"/>
    <path id="Path_150" data-name="Path 150" d="M10.135,52.17q-2.952,0-5.9,0a4.117,4.117,0,0,1-4.22-4.225c0-3.936.02-7.872-.01-11.807a4.193,4.193,0,0,1,3.018-4.089A4.465,4.465,0,0,1,4.04,31.9c1.228-.018,2.457-.009,3.686-.008.327,0,.525.151.562.415s-.087.389-.416.527c-.582.244-1.152.517-1.733.764a1.527,1.527,0,0,1-.517.132c-.622.027-1.254-.03-1.867.058a2.21,2.21,0,0,0-1.894,2.2c-.017,1.785-.007,3.571-.007,5.356q0,3.268,0,6.537a2.3,2.3,0,0,0,2.432,2.437q5.889,0,11.778,0a2.287,2.287,0,0,0,2.374-2.379c0-.96.009-1.92,0-2.88a.627.627,0,0,1,.355-.6,6.063,6.063,0,0,0,.683-.474.465.465,0,0,1,.527-.1.459.459,0,0,1,.284.457c0,1.315.028,2.631-.012,3.945a4.124,4.124,0,0,1-4.065,3.878c-2.025.015-4.051,0-6.076,0" transform="translate(-0.001 -30.053)" fill="#3b3d4a"/>
  </g>
</svg>
