<svg id="Group_3533" data-name="Group 3533" xmlns="http://www.w3.org/2000/svg" xmlns:xlink="http://www.w3.org/1999/xlink" width="27.715" height="29.954" viewBox="0 0 27.715 29.954">
  <defs>
    <clipPath id="clip-path">
      <rect id="Rectangle_406" data-name="Rectangle 406" width="27.715" height="29.954" fill="#fdcf71"/>
    </clipPath>
  </defs>
  <g id="Group_3532" data-name="Group 3532" clip-path="url(#clip-path)">
    <path id="Path_1532" data-name="Path 1532" d="M27.715,39.677c-.061.431-.136.828-.172,1.228a8.574,8.574,0,0,1-.768,2.417,7.3,7.3,0,0,1-.705,1.208c-.3.472-.631.932-.968,1.382a7.072,7.072,0,0,1-.5.511c-.2.212-.379.435-.57.652a1.369,1.369,0,0,1-.164.167c-.194.157-.4.3-.589.463-.4.329-.788.676-1.2.99a8.721,8.721,0,0,1-.8.488c-.1.063-.21.126-.314.19a.752.752,0,0,1-.081.059,8.055,8.055,0,0,1-1.176.495,11.993,11.993,0,0,1-1.9.334,6.5,6.5,0,0,1-1.418-.081c-.448-.06-.888-.181-1.331-.276a.565.565,0,0,1-.143-.046c-.344-.182-.689-.364-1.03-.552-.268-.148-.541-.29-.8-.46-.37-.246-.728-.51-1.086-.773-.22-.161-.438-.327-.647-.5-.384-.323-.757-.659-1.141-.983-.229-.193-.471-.372-.706-.558a1.177,1.177,0,0,1-.1-.093c-.2-.2-.407-.409-.613-.61s-.446-.426-.666-.642c-.163-.16-.318-.329-.484-.487s-.363-.31-.529-.48c-.146-.15-.26-.331-.406-.482-.219-.228-.453-.442-.68-.662a.536.536,0,0,1-.07-.072,7.918,7.918,0,0,0-1.013-1.106c-.3-.288-.559-.609-.844-.909-.666-.7-1.337-1.4-2-2.1-.172-.182-.319-.388-.489-.572-.124-.134-.273-.244-.4-.377-.2-.215-.394-.438-.585-.661A2.181,2.181,0,0,1,0,35.268,1.214,1.214,0,0,1,.329,34.4a4.182,4.182,0,0,1,.7-.581,1.481,1.481,0,0,1,1.451.21c.321.338.685.635,1.017.964.285.282.547.588.825.877.231.24.472.469.705.707.094.1.174.2.265.3.445.477.887.957,1.34,1.428a7.454,7.454,0,0,0,.741.7c.21.165.34.146.448.025a.518.518,0,0,0,0-.538c-.114-.144-.246-.275-.374-.408-.316-.331-.635-.66-.951-.991q-.615-.644-1.226-1.29c-.207-.22-.4-.452-.609-.669-.306-.316-.624-.62-.933-.933-.179-.182-.349-.374-.524-.56-.2-.215-.408-.426-.607-.644s-.393-.446-.59-.668c-.041-.046-.081-.093-.125-.136a9.7,9.7,0,0,1-.867-.86,2,2,0,0,1-.5-1.708A1.69,1.69,0,0,1,1.8,28.36a1.784,1.784,0,0,1,.642.067,2.948,2.948,0,0,1,1.2.8c.283.309.581.606.872.908.322.334.646.665.963,1s.6.669.912.991c.178.183.383.339.576.507a.764.764,0,0,1,.073.069,8.846,8.846,0,0,0,.845.943c.4.336.67.771,1.041,1.122.141.134.29.26.423.4.183.194.345.41.536.6a1.413,1.413,0,0,0,.38.237c.109.052.2-.007.242-.115a.554.554,0,0,0-.132-.61c-.452-.479-.9-.967-1.348-1.447s-.938-.976-1.4-1.47c-.218-.231-.421-.476-.631-.714-.022-.025-.046-.049-.069-.073-.222-.233-.442-.468-.668-.7-.206-.209-.421-.41-.626-.62-.156-.159-.3-.328-.454-.489-.217-.228-.439-.452-.654-.682-.282-.3-.558-.61-.837-.915-.132-.144-.273-.281-.4-.431-.242-.292-.477-.589-.71-.888a.5.5,0,0,1-.105-.206A2.829,2.829,0,0,1,2.441,25.5a.879.879,0,0,1,.144-.316,1.569,1.569,0,0,1,1.148-.734,1.807,1.807,0,0,1,1.234.278c.293.213.579.435.868.653.022.017.052.032.062.055.175.39.564.6.8.935.036.051.109.075.163.113a.688.688,0,0,1,.133.1c.269.31.523.634.8.932.61.646,1.238,1.275,1.85,1.919.586.616,1.159,1.244,1.742,1.862.129.137.279.255.413.389q.634.631,1.263,1.268c.079.079.16.157.234.24a.275.275,0,0,0,.433,0,.417.417,0,0,0-.011-.493c-.307-.338-.607-.683-.917-1.018-.162-.175-.34-.335-.506-.507-.185-.192-.363-.391-.547-.585-.218-.23-.441-.456-.658-.686-.152-.162-.3-.329-.45-.492q-.409-.442-.821-.883L8.11,26.687a5.412,5.412,0,0,0-.4-.428,2.837,2.837,0,0,1-.549-.854.973.973,0,0,1,.116-1.07,1.949,1.949,0,0,1,1.011-.793,1.515,1.515,0,0,1,.968.06,4.39,4.39,0,0,1,1.09.646,3.983,3.983,0,0,1,.615.659c.114.123.236.238.354.357.262.266.523.534.786.8.161.163.326.323.487.486.216.218.431.438.647.656s.412.411.615.618c.3.307.6.619.9.925.333.339.671.672,1,1.011.486.494.968.993,1.455,1.486s.963.965,1.446,1.446a.523.523,0,0,1,.012.577c-.229.336-.465.667-.7,1a1.156,1.156,0,0,0-.072.15L17.606,35a.547.547,0,0,0-.048.088,10.72,10.72,0,0,0-.452,1.715,10.785,10.785,0,0,0,.131,3.589,9.655,9.655,0,0,0,.357,1.153,4.161,4.161,0,0,0,.345.629c.052.089.446.238.491.178a.605.605,0,0,0,.155-.375,2.393,2.393,0,0,0-.2-.52c-.069-.176-.13-.355-.192-.534a1.311,1.311,0,0,0-.052-.194A4.826,4.826,0,0,1,17.776,39a8.689,8.689,0,0,1,.143-2.321A1.331,1.331,0,0,1,18,36.412c.078-.215.15-.433.243-.642a7.386,7.386,0,0,1,.419-.853c.208-.341.45-.662.686-.985.17-.233.264-.237.472-.039.3.281.583.571.884.845a.9.9,0,0,0,.644.315.352.352,0,0,0,.38-.339,2.334,2.334,0,0,0-.2-1.061c-.116-.259-.188-.537-.283-.806-.046-.131-.1-.26-.149-.391-.067-.177-.127-.357-.2-.532s-.144-.32-.217-.479a1.245,1.245,0,0,1-.082-.183c-.082-.3-.156-.607-.238-.909a3.105,3.105,0,0,1,.072-1.912.741.741,0,0,0,.036-.112,2.618,2.618,0,0,1,.709-1.19,4.245,4.245,0,0,1,.543-.56.977.977,0,0,1,1.551.347c.143.422.289.844.452,1.259s.351.817.518,1.229c.071.176.114.363.175.542q.224.65.455,1.3c.02.057.065.1.09.159.07.157.139.314.2.473.079.2.153.4.228.606.058.157.117.313.172.471.084.243.165.486.248.729,0,.005,0,.01.007.015.191.53.379,1.061.573,1.59.1.266.211.528.312.793.223.584.443,1.168.665,1.753a.814.814,0,0,1,.055.141c.1.572.2,1.145.29,1.693" transform="translate(0 -20.322)" fill="#fdcf71"/>
    <path id="Path_1533" data-name="Path 1533" d="M98.669,11.758a.831.831,0,0,1,.2.039,16.491,16.491,0,0,1,1.538.739,5.234,5.234,0,0,1,1.586,1.472c.357.5.692,1.026,1.036,1.54a.961.961,0,0,1,.073.151c.111.255.22.512.334.766a.936.936,0,0,1,.071.746.272.272,0,0,1-.234.207,1.112,1.112,0,0,0-.182.03.221.221,0,0,1-.284-.142c-.1-.2-.194-.4-.293-.6-.192-.388-.377-.781-.584-1.162a5.271,5.271,0,0,0-.414-.626,6.144,6.144,0,0,0-.569-.7,7.4,7.4,0,0,0-.986-.87,5.286,5.286,0,0,0-.966-.447c-.185-.078-.388-.116-.567-.2a.487.487,0,0,1-.186-.749.48.48,0,0,1,.43-.184" transform="translate(-84.915 -10.174)" fill="#fdcf71"/>
    <path id="Path_1534" data-name="Path 1534" d="M13.534,168.376a3.439,3.439,0,0,1-1.428-.291c-.1-.059-.238-.065-.35-.114-.208-.092-.409-.2-.613-.3-.035-.017-.065-.046-.1-.06a5.072,5.072,0,0,1-1.462-1.1c-.049-.044-.111-.076-.16-.121-.084-.078-.164-.16-.242-.243-.03-.032-.051-.073-.08-.107-.3-.357-.616-.7-.9-1.074a4.247,4.247,0,0,1-.366-.654.188.188,0,0,1,.023-.138.236.236,0,0,1,.092-.1c.154-.088.2-.4.494-.2a1.115,1.115,0,0,1,.446.4,4.173,4.173,0,0,0,.572.8c.335.373.7.717,1.059,1.072a.993.993,0,0,0,.142.116c.359.244.717.488,1.08.727a1.144,1.144,0,0,0,.232.095,6.64,6.64,0,0,0,1.872.424.4.4,0,0,1,.337.611.343.343,0,0,1-.2.162,4.014,4.014,0,0,1-.45.09" transform="translate(-6.771 -141.747)" fill="#fdcf71"/>
    <path id="Path_1535" data-name="Path 1535" d="M123.965,0a.93.93,0,0,1,.283.083,6.676,6.676,0,0,1,.811.617c.4.382.765.8,1.145,1.2a.314.314,0,0,1,.05.067c.182.344.374.684.541,1.035.2.422.381.854.567,1.283a1.145,1.145,0,0,1,.087.27,6.545,6.545,0,0,1,.1.814,2.047,2.047,0,0,1-.088.588.227.227,0,0,1-.308.153.63.63,0,0,1-.515-.639,1.854,1.854,0,0,0-.23-.814.214.214,0,0,1-.035-.076,4.67,4.67,0,0,0-.47-1.294,2.3,2.3,0,0,0-.253-.467,9.634,9.634,0,0,0-.573-.792,3.794,3.794,0,0,0-.931-.856,1.872,1.872,0,0,1-.562-.514.652.652,0,0,1,.022-.476A.319.319,0,0,1,123.965,0" transform="translate(-106.902 0)" fill="#fdcf71"/>
    <path id="Path_1536" data-name="Path 1536" d="M7.624,190.558A5.559,5.559,0,0,1,5.5,190.1c-.357-.167-.712-.34-1.058-.529a2.551,2.551,0,0,1-.47-.345,7.7,7.7,0,0,1-1.331-1.241c-.161-.232-.335-.456-.485-.7a.257.257,0,0,1,.006-.239,2.066,2.066,0,0,1,.347-.287.1.1,0,0,1,.093,0c.176.139.4.2.535.414a2.16,2.16,0,0,0,.462.479,6.332,6.332,0,0,0,1.145.946c.309.161.572.415.888.555a4.537,4.537,0,0,0,1.55.467c.2.012.4.028.6.037.29.012.444.187.445.512a.432.432,0,0,1-.444.387c-.045,0-.09,0-.162,0" transform="translate(-1.842 -161.591)" fill="#fdcf71"/>
  </g>
</svg>
