<svg id="Group_3395" data-name="Group 3395" xmlns="http://www.w3.org/2000/svg" xmlns:xlink="http://www.w3.org/1999/xlink" width="32.594" height="28.744" viewBox="0 0 32.594 28.744">
  <defs>
    <clipPath id="clip-path">
      <rect id="Rectangle_93" data-name="Rectangle 93" width="32.594" height="28.744" fill="#fff"/>
    </clipPath>
  </defs>
  <g id="Group_3394" data-name="Group 3394" clip-path="url(#clip-path)">
    <path id="Path_111" data-name="Path 111" d="M16.3,3.694A8.5,8.5,0,0,1,24.039.042a8.691,8.691,0,0,1,6.513,3.919,10.149,10.149,0,0,1,1.907,4.364A9.762,9.762,0,0,1,29.4,17.307c-3.777,3.59-7.6,7.137-11.4,10.7a2.335,2.335,0,0,1-3.391.016q-3.712-3.451-7.4-6.93L3.281,17.4A9.874,9.874,0,0,1,0,10.06a10.239,10.239,0,0,1,2.427-6.6A8.8,8.8,0,0,1,6.985.322,8.27,8.27,0,0,1,11.4.278,8.431,8.431,0,0,1,16.3,3.694" transform="translate(0 0)" fill="#fff"/>
  </g>
</svg>
