<svg id="Group_3395" data-name="Group 3395" xmlns="http://www.w3.org/2000/svg" xmlns:xlink="http://www.w3.org/1999/xlink" width="24.142" height="21.291" viewBox="0 0 24.142 21.291">
  <defs>
    <clipPath id="clip-path">
      <rect id="Rectangle_93" data-name="Rectangle 93" width="24.142" height="21.291" fill="#63646a"/>
    </clipPath>
  </defs>
  <g id="Group_3394" data-name="Group 3394" clip-path="url(#clip-path)">
    <path id="Path_111" data-name="Path 111" d="M12.075,2.736A6.293,6.293,0,0,1,17.806.031a6.438,6.438,0,0,1,4.824,2.9,7.517,7.517,0,0,1,1.412,3.232A7.231,7.231,0,0,1,21.78,12.82c-2.8,2.659-5.627,5.286-8.444,7.925a1.73,1.73,0,0,1-2.512.012Q8.075,18.2,5.344,15.623L2.431,12.889A7.313,7.313,0,0,1,0,7.451,7.584,7.584,0,0,1,1.8,2.564,6.516,6.516,0,0,1,5.174.238,6.126,6.126,0,0,1,8.441.206a6.244,6.244,0,0,1,3.634,2.531" transform="translate(0 0)" fill="#63646a"/>
  </g>
</svg>
