<svg id="Group_3437" data-name="Group 3437" xmlns="http://www.w3.org/2000/svg" xmlns:xlink="http://www.w3.org/1999/xlink" width="25.597" height="26.338" viewBox="0 0 25.597 26.338">
  <defs>
    <clipPath id="clip-path">
      <rect id="Rectangle_109" data-name="Rectangle 109" width="25.597" height="26.338" fill="#63646a"/>
    </clipPath>
  </defs>
  <g id="Group_3436" data-name="Group 3436" clip-path="url(#clip-path)">
    <path id="Path_140" data-name="Path 140" d="M108.964,53.44a.625.625,0,0,1-.621-.807,8.921,8.921,0,0,1,.317-.94c.349-.947.7-1.893,1.056-2.839.139-.374.284-.745.417-1.121a3.039,3.039,0,0,1,.543-.927c.4-.486.791-.983,1.19-1.472.549-.673,1.1-1.343,1.654-2.016q.844-1.031,1.686-2.065.867-1.062,1.734-2.125,1.217-1.488,2.435-2.974c.02-.025.044-.048.063-.073.092-.118.093-.12.206-.026q1.056.875,2.111,1.75c.437.361.876.719,1.314,1.078.075.061.147.125.222.186a.064.064,0,0,1,.01.106q-.272.326-.542.655c-.2.244-.4.489-.6.733q-.372.456-.745.912c-.345.425-.689.851-1.035,1.275-.378.464-.76.925-1.138,1.389q-.787.965-1.571,1.933l-1.36,1.669c-.516.634-1.029,1.271-1.55,1.9a4.628,4.628,0,0,1-1.108,1.053c-.343.211-.682.426-1.024.639q-1.314.821-2.629,1.64c-.224.139-.454.268-.689.387a1.985,1.985,0,0,1-.343.1l-.008-.026m2.249-2.7a2.28,2.28,0,0,0,.222-.111c.3-.19.592-.388.89-.577s.629-.388.943-.583c.052-.032.108-.066.03-.129-.206-.164-.415-.325-.619-.492q-.575-.47-1.146-.946c-.093-.077-.123-.068-.166.049-.119.326-.241.651-.363.975q-.212.564-.426,1.126a.227.227,0,0,0,.075.283c.134.11.266.224.4.33a.8.8,0,0,0,.156.073" transform="translate(-99.925 -33.198)" fill="#63646a"/>
    <path id="Path_141" data-name="Path 141" d="M41.422,114.8v.348q0,7.371,0,14.742a2.428,2.428,0,0,1-.08.784,2.092,2.092,0,0,1-1.536,1.484,2.427,2.427,0,0,1-.571.076q-8.539.006-17.078,0a2.132,2.132,0,0,1-2.074-1.489,2.107,2.107,0,0,1-.12-.71q0-1.943,0-3.886c0-.186,0-.184.184-.183.29,0,.58,0,.87,0,.091,0,.128.018.128.121-.006,1.228-.005,2.455-.01,3.683a1.715,1.715,0,0,0,.062.619,1.014,1.014,0,0,0,.934.673q1.276,0,2.552,0H39a1.382,1.382,0,0,0,.671-.1.965.965,0,0,0,.58-.895q0-1.629,0-3.258c0-.567-.018-1.134-.017-1.7q.006-4.4.016-8.8a.282.282,0,0,1,.072-.191c.34-.412.677-.827,1.016-1.241.02-.024.045-.045.088-.086" transform="translate(-18.415 -105.9)" fill="#63646a"/>
    <path id="Path_142" data-name="Path 142" d="M36.712,22.924c-.125.162-.242.322-.367.475-.159.195-.329.38-.483.578a.286.286,0,0,1-.255.116q-3.189,0-6.379,0-3.542,0-7.084,0a1.159,1.159,0,0,0-.634.161.923.923,0,0,0-.437.815c-.016.966-.01,1.933-.012,2.9,0,.377,0,.754,0,1.131,0,.058-.01.088-.079.088-.332,0-.663,0-1,.007-.079,0-.1-.028-.1-.1,0-1.36-.018-2.72.015-4.079a2.107,2.107,0,0,1,1.27-1.916,2.135,2.135,0,0,1,.975-.192l12.38,0,2.145,0a.217.217,0,0,1,.04.012" transform="translate(-18.34 -21.128)" fill="#63646a"/>
    <path id="Path_143" data-name="Path 143" d="M267.811,2.771a1.616,1.616,0,0,1-.315.869c-.345.433-.7.859-1.044,1.291-.052.065-.085.052-.139.008q-.961-.785-1.925-1.566c-.589-.48-1.175-.962-1.765-1.441-.068-.055-.064-.1-.012-.158.328-.393.652-.789.981-1.181A1.477,1.477,0,0,1,264.746,0a1.217,1.217,0,0,1,.787.3c.379.309.766.608,1.145.918q.389.317.763.652a1.248,1.248,0,0,1,.371.9" transform="translate(-242.215 -0.001)" fill="#63646a"/>
    <path id="Path_144" data-name="Path 144" d="M1.732,168.907c.406,0,.811,0,1.217,0a.182.182,0,0,0,.124-.066.991.991,0,1,1,.009,1.153.182.182,0,0,0-.161-.078c-.786,0-1.571-.008-2.357.007a.523.523,0,0,1-.464-.759.457.457,0,0,1,.435-.264c.4,0,.8,0,1.2,0v.01" transform="translate(-0.035 -155.349)" fill="#63646a"/>
    <path id="Path_145" data-name="Path 145" d="M1.687,232.428c.4,0,.8,0,1.207,0a.155.155,0,0,0,.145-.073,1,1,0,0,1,1.058-.386.979.979,0,0,1,.749.913.987.987,0,0,1-1.689.752.192.192,0,0,1-.039-.043c-.08-.154-.213-.166-.371-.165-.74.007-1.481,0-2.221,0a.5.5,0,0,1-.055-1c.405-.008.811,0,1.217,0h0" transform="translate(0 -213.957)" fill="#63646a"/>
    <path id="Path_146" data-name="Path 146" d="M1.73,106.643H.533a.513.513,0,0,1-.493-.455.493.493,0,0,1,.4-.533,1.061,1.061,0,0,1,.182-.017q1.145,0,2.289,0a.183.183,0,0,0,.176-.085A.961.961,0,0,1,4.2,105.2a.958.958,0,0,1,.69.9,1.009,1.009,0,0,1-1.055,1.032.961.961,0,0,1-.729-.4.209.209,0,0,0-.194-.1c-.393,0-.786,0-1.178,0v0" transform="translate(-0.035 -97.003)" fill="#63646a"/>
    <path id="Path_147" data-name="Path 147" d="M20.042,198.2v-2.734h1.15a.6.6,0,0,1,.008.07q0,1.289,0,2.578c0,.04.01.087-.058.086h-1.1" transform="translate(-18.488 -180.315)" fill="#63646a"/>
    <path id="Path_148" data-name="Path 148" d="M19.892,134.738c0-.081,0-.148,0-.215,0-.8,0-1.6-.009-2.4,0-.089.021-.122.117-.12.315.007.631,0,.947,0,.084,0,.111.021.11.108q0,1.271,0,2.542c0,.055-.011.083-.074.082-.357,0-.715,0-1.091,0" transform="translate(-18.342 -121.773)" fill="#63646a"/>
  </g>
</svg>
