<svg id="Group_3503" data-name="Group 3503" xmlns="http://www.w3.org/2000/svg" xmlns:xlink="http://www.w3.org/1999/xlink" width="23.256" height="24.881" viewBox="0 0 23.256 24.881">
  <defs>
    <clipPath id="clip-path">
      <rect id="Rectangle_383" data-name="Rectangle 383" width="23.256" height="24.881" fill="#343130"/>
    </clipPath>
  </defs>
  <g id="Group_3502" data-name="Group 3502" clip-path="url(#clip-path)">
    <path id="Path_1511" data-name="Path 1511" d="M4.874,2.554c0-.493,0-.966,0-1.439A2.041,2.041,0,0,1,4.9.794.926.926,0,0,1,5.843,0,.9.9,0,0,1,6.7.866c.024.508.013,1.017.009,1.525,0,.125.029.168.162.168q4.727-.006,9.454,0c.224,0,.221,0,.22-.224,0-.46-.008-.919,0-1.379a.9.9,0,0,1,.749-.934.856.856,0,0,1,.882.362,1.175,1.175,0,0,1,.2.649c0,.45,0,.9-.009,1.349,0,.141.026.183.172.182q1.512-.011,3.024,0a1.735,1.735,0,0,1,1.674,1.468,1.823,1.823,0,0,1,.011.249q0,9.448.007,18.9a1.736,1.736,0,0,1-1.683,1.713c-3.586-.008-7.173,0-10.76,0H1.8A1.7,1.7,0,0,1,.9,24.684,1.739,1.739,0,0,1,0,23.081q0-8.985,0-17.971c0-.342-.016-.687.017-1.026a1.691,1.691,0,0,1,1.38-1.5,1.772,1.772,0,0,1,.335-.029q1.49,0,2.98,0h.158M1.382,9.22v.156q0,1.247,0,2.494,0,5.48,0,10.959a.6.6,0,0,0,.635.663c.244.008.489,0,.734,0H20.208c.342,0,.685,0,1.027,0a.6.6,0,0,0,.633-.65c0-.191-.007-.381-.007-.572q0-6.221,0-12.441c0-.166,0-.333,0-.5,0-.083-.03-.111-.113-.108-.146.005-.293,0-.44,0l-19.42,0h-.51M16.54,3.974a1.39,1.39,0,0,0-.1,2.041,1.463,1.463,0,0,0,2.034.014,1.42,1.42,0,0,0-.093-2.041c0,.031,0,.053,0,.075-.008.342.006.686-.032,1.024a.858.858,0,0,1-.6.73.849.849,0,0,1-.867-.158.948.948,0,0,1-.336-.779V3.974m-11.66,0A1.4,1.4,0,0,0,5.96,6.426a1.411,1.411,0,0,0,1.226-1.1,1.35,1.35,0,0,0-.469-1.341c0,.068-.014.13-.013.192,0,.254.016.508.007.762a.9.9,0,0,1-.57.864.853.853,0,0,1-.92-.144.947.947,0,0,1-.337-.722c-.012-.312,0-.625,0-.966" transform="translate(0 -0.001)" fill="#343130"/>
    <path id="Path_1512" data-name="Path 1512" d="M72.458,128.887c0,.288,0,.577,0,.865a.414.414,0,0,1-.428.455c-.366.015-.734.011-1.1.012-.24,0-.48.006-.718-.009a.4.4,0,0,1-.422-.457q-.005-.88,0-1.76a.393.393,0,0,1,.373-.429,3.457,3.457,0,0,1,.453-.02c.435,0,.871,0,1.306,0,.381,0,.541.156.544.539,0,.269,0,.538,0,.807h0" transform="translate(-61.564 -112.515)" fill="#343130"/>
    <path id="Path_1513" data-name="Path 1513" d="M37.333,128.871c0,.293,0,.586,0,.879a.407.407,0,0,1-.417.449c-.253.015-.508.012-.762.013-.337,0-.675,0-1.011-.009s-.469-.14-.474-.481q-.011-.85,0-1.7c0-.317.119-.453.438-.471.41-.022.821-.012,1.231-.015.171,0,.342-.007.513,0a.457.457,0,0,1,.483.5c0,.142,0,.283,0,.425v.41h0" transform="translate(-30.579 -112.507)" fill="#343130"/>
    <path id="Path_1514" data-name="Path 1514" d="M140.043,128.877c0-.3,0-.6,0-.895a.391.391,0,0,1,.343-.409,2.861,2.861,0,0,1,.409-.025c.426,0,.851,0,1.277,0a1.719,1.719,0,0,1,.263.018.39.39,0,0,1,.373.414q.01.909,0,1.819a.382.382,0,0,1-.388.412c-.194.017-.391.012-.586.013q-.572,0-1.145,0c-.391,0-.544-.154-.544-.541q0-.4,0-.807" transform="translate(-123.544 -112.52)" fill="#343130"/>
    <path id="Path_1515" data-name="Path 1515" d="M107.555,163.971c0,.293,0,.586,0,.879a.39.39,0,0,1-.419.441q-.916.017-1.833,0a.4.4,0,0,1-.417-.447q-.006-.872,0-1.744a.418.418,0,0,1,.441-.461c.586-.011,1.173-.011,1.76.006.336.009.467.17.469.506,0,.274,0,.547,0,.821" transform="translate(-92.526 -143.471)" fill="#343130"/>
    <path id="Path_1516" data-name="Path 1516" d="M72.458,164.006c0,.3,0,.606,0,.909a.377.377,0,0,1-.3.377.959.959,0,0,1-.217.025c-.543,0-1.085,0-1.628,0-.389,0-.517-.136-.519-.524q0-.828,0-1.656a.408.408,0,0,1,.415-.466c.267-.022.537-.013.806-.015.313,0,.626,0,.939,0a.455.455,0,0,1,.512.515c0,.279,0,.557,0,.836h0" transform="translate(-61.566 -143.491)" fill="#343130"/>
    <path id="Path_1517" data-name="Path 1517" d="M107.555,128.9c0,.283,0,.567,0,.85s-.134.454-.418.46c-.615.014-1.232.011-1.847,0a.4.4,0,0,1-.4-.433c-.006-.6-.005-1.192,0-1.788a.419.419,0,0,1,.331-.411,1.181,1.181,0,0,1,.261-.028q.755,0,1.511,0a1.133,1.133,0,0,1,.232.025.4.4,0,0,1,.335.4c0,.308,0,.616,0,.923h0" transform="translate(-92.525 -112.518)" fill="#343130"/>
    <path id="Path_1518" data-name="Path 1518" d="M107.558,93.819c0,.293,0,.586,0,.879a.407.407,0,0,1-.455.451q-.872,0-1.745,0a.412.412,0,0,1-.471-.468q-.006-.865,0-1.729a.405.405,0,0,1,.41-.444c.6-.016,1.2-.023,1.8-.009.328.008.458.172.46.5,0,.274,0,.547,0,.821h0" transform="translate(-92.527 -81.595)" fill="#343130"/>
    <path id="Path_1519" data-name="Path 1519" d="M37.333,163.984c0,.289,0,.577,0,.865a.417.417,0,0,1-.449.464c-.425.01-.851,0-1.277.005-.166,0-.333,0-.5,0-.295-.017-.434-.145-.439-.439-.01-.6-.008-1.193,0-1.789a.384.384,0,0,1,.359-.411,1.058,1.058,0,0,1,.2-.021c.509,0,1.018,0,1.527,0a1.013,1.013,0,0,1,.3.046.381.381,0,0,1,.272.389c0,.3,0,.6,0,.895Z" transform="translate(-30.579 -143.489)" fill="#343130"/>
    <path id="Path_1520" data-name="Path 1520" d="M37.366,93.814c0,.288,0,.576,0,.865a.4.4,0,0,1-.421.441c-.616.008-1.231.007-1.847,0a.356.356,0,0,1-.388-.372q-.017-.937,0-1.875a.361.361,0,0,1,.389-.391c.507-.02,1.016-.017,1.524-.021a2.447,2.447,0,0,1,.365.019.414.414,0,0,1,.379.44q0,.447,0,.894h0" transform="translate(-30.612 -81.568)" fill="#343130"/>
    <path id="Path_1521" data-name="Path 1521" d="M140.045,93.774c0-.288,0-.576,0-.865a.415.415,0,0,1,.379-.442,1.966,1.966,0,0,1,.277-.02q.733,0,1.466,0c.4,0,.548.157.547.552,0,.542,0,1.084,0,1.627,0,.345-.147.483-.5.483h-1.672c-.35,0-.5-.15-.5-.5q0-.418,0-.835" transform="translate(-123.545 -81.554)" fill="#343130"/>
    <path id="Path_1522" data-name="Path 1522" d="M72.459,93.81c0,.288,0,.576,0,.865a.4.4,0,0,1-.421.441q-.909.011-1.818,0a.387.387,0,0,1-.427-.432q-.01-.894,0-1.788a.38.38,0,0,1,.385-.415c.385-.022.771-.02,1.157-.023.239,0,.479,0,.717.015a.411.411,0,0,1,.409.444c0,.3,0,.6,0,.894h0" transform="translate(-61.565 -81.564)" fill="#343130"/>
  </g>
</svg>
