<svg id="Group_40" data-name="Group 40" xmlns="http://www.w3.org/2000/svg" xmlns:xlink="http://www.w3.org/1999/xlink" width="22.711" height="22.701" viewBox="0 0 22.711 22.701">
  <defs>
    <clipPath id="clip-path">
      <rect id="Rectangle_24" data-name="Rectangle 24" width="22.711" height="22.701" fill="#fff"/>
    </clipPath>
  </defs>
  <g id="Group_39" data-name="Group 39" transform="translate(0 0)" clip-path="url(#clip-path)">
    <path id="Path_16" data-name="Path 16" d="M22.711,9.377a5.187,5.187,0,0,0-.229-1.514,5.1,5.1,0,0,0-2.074-2.817Q17.3,2.938,14.18.845a4.973,4.973,0,0,0-2.447-.83A4.613,4.613,0,0,0,9.85.236,5.925,5.925,0,0,0,8.926.62c-.406.226-.791.492-1.177.751Q5.471,2.9,3.2,4.443c-.427.289-.866.566-1.268.888A5,5,0,0,0,.235,7.853,5.257,5.257,0,0,0,0,9.366q0,4.03,0,8.06A5.253,5.253,0,0,0,.235,19a5.1,5.1,0,0,0,1.588,2.432A5.194,5.194,0,0,0,5.276,22.7q3.04,0,6.08,0,3.015,0,6.029,0a5.39,5.39,0,0,0,1.653-.243,5.113,5.113,0,0,0,2.338-1.5,5.2,5.2,0,0,0,1.335-3.548q0-4.015,0-8.03" transform="translate(0 0)" fill="#fff"/>
  </g>
</svg>
