<svg id="Group_2097" data-name="Group 2097" xmlns="http://www.w3.org/2000/svg" width="32.87" height="38.565" viewBox="0 0 32.87 38.565">
  <path id="Path_2447" data-name="Path 2447" d="M1010.769,4749.515h7.431a30.009,30.009,0,0,0,1.065-3.081,22.833,22.833,0,0,0,.9-5.688c-.066-.715-.09-1.437-.2-2.145a13.41,13.41,0,0,0-12.409-11.3,12.78,12.78,0,0,0-3.876.323,13.263,13.263,0,0,0-8.451,6.164,12.9,12.9,0,0,0-1.885,6.1,17.884,17.884,0,0,0,.419,4.778,29.513,29.513,0,0,0,2.088,6.126,45.97,45.97,0,0,0,3.465,6.192,54.334,54.334,0,0,0,5.845,7.452c.434.459.916.874,1.375,1.308a.242.242,0,0,0,.375,0c.174-.155.364-.294.534-.455a37.822,37.822,0,0,0,3.331-3.646Zm-4.036-.975a7.856,7.856,0,1,1,7.841-7.816A7.858,7.858,0,0,1,1006.733,4748.54Z" transform="translate(-993.314 -4727.274)" fill="#5078fb"/>
  <g id="Group_2096" data-name="Group 2096" transform="translate(18.552 23.337)">
    <path id="Path_2448" data-name="Path 2448" d="M1023.846,4762.063v2.149c0,.214-.022.238-.229.238h-4.324c-.2,0-.224-.026-.224-.229q0-2.156,0-4.311c0-.217.022-.238.243-.238h4.3c.217,0,.238.021.238.243Zm-2.382-1.706h-1.51c-.168,0-.2.031-.2.2q0,1.5,0,3.006c0,.176.025.2.207.2q1.5,0,2.992,0c.182,0,.207-.024.207-.2q0-1.5,0-3.007c0-.169-.03-.2-.2-.2Z" transform="translate(-1019.067 -4759.67)" fill="#5078fb"/>
    <path id="Path_2449" data-name="Path 2449" d="M1021.458,4772.923h2.189c.173,0,.2.024.2.194q0,2.19,0,4.379c0,.169-.028.2-.2.2h-4.365c-.191,0-.212-.021-.212-.209q0-2.169,0-4.338c0-.2.019-.222.227-.222Zm0,4.086h1.5c.177,0,.2-.026.2-.2q0-1.49,0-2.979c0-.2-.023-.22-.218-.22h-2.966c-.207,0-.224.017-.224.226q0,1.489,0,2.979c0,.17.03.2.2.2Z" transform="translate(-1019.068 -4763.376)" fill="#5078fb"/>
    <path id="Path_2450" data-name="Path 2450" d="M1037.09,4762.052v2.2c0,.164-.026.192-.187.192h-4.393c-.162,0-.189-.028-.189-.19q0-2.2,0-4.406c0-.149.032-.181.187-.181h4.393c.163,0,.189.027.189.19Q1037.09,4760.957,1037.09,4762.052Zm-.684.011h0c0-.5,0-1.006,0-1.51,0-.163-.029-.2-.184-.2q-1.511,0-3.021,0c-.173,0-.2.026-.2.2q0,1.51,0,3.02c0,.16.029.19.192.19q1.511,0,3.021,0c.162,0,.189-.029.189-.191Q1036.406,4762.818,1036.406,4762.063Z" transform="translate(-1022.773 -4759.67)" fill="#5078fb"/>
    <path id="Path_2451" data-name="Path 2451" d="M1032.735,4774.7c-.173,0-.345,0-.517,0-.115,0-.168-.045-.163-.162s0-.227,0-.34-.045-.187-.176-.18c-.113.006-.227,0-.34,0s-.169-.042-.166-.159,0-.254,0-.381a.122.122,0,0,1,.14-.142h.381a.139.139,0,0,0,.159-.158c0-.122,0-.245,0-.368,0-.107.044-.16.154-.156s.227,0,.34,0c.151,0,.185-.035.187-.184,0-.113,0-.226,0-.34s.04-.161.153-.158.254,0,.381,0a.129.129,0,0,1,.15.148c0,.126,0,.253,0,.381a.132.132,0,0,0,.149.151c.122,0,.245,0,.367,0s.168.043.165.16,0,.217,0,.327c0,.166.03.193.2.195.1,0,.208,0,.313,0,.124-.006.17.053.169.172,0,.33,0,.662,0,.993,0,.17.026.2.2.2.109,0,.218,0,.326,0s.16.045.158.155,0,.217,0,.326c0,.175.027.2.207.2h.967c.165,0,.187.023.188.19,0,.1,0,.208,0,.313,0,.156-.025.178-.186.178-.1,0-.2,0-.3,0-.165,0-.2.032-.2.2,0,.326,0,.653,0,.98,0,.159-.022.181-.182.181-.336,0-.671,0-1.007,0-.13,0-.177-.052-.175-.18.005-.335,0-.671,0-1.007,0-.128-.052-.183-.179-.178s-.227,0-.34,0-.169-.045-.166-.161,0-.228,0-.341-.045-.186-.175-.18-.236,0-.354,0-.156-.052-.153-.16,0-.245,0-.368c0-.106.045-.16.153-.157s.236,0,.354,0,.179-.043.175-.167,0-.235,0-.354-.044-.161-.153-.16-.245,0-.367,0-.163.055-.159.168,0,.218,0,.326c0,.16-.03.186-.195.187Z" transform="translate(-1022.508 -4763.111)" fill="#5078fb"/>
    <path id="Path_2452" data-name="Path 2452" d="M1029.363,4777.427h-.489c-.169,0-.184-.017-.184-.191,0-.108,0-.217,0-.326s-.053-.167-.167-.164-.245,0-.367,0c-.1,0-.15-.047-.149-.148s0-.226,0-.34c0-.16-.032-.191-.19-.193h-.354a.118.118,0,0,1-.135-.131c0-.137,0-.273,0-.409a.124.124,0,0,1,.142-.141c.123,0,.245,0,.367,0s.171-.046.171-.16q0-.524,0-1.047c0-.1-.048-.159-.158-.155s-.2,0-.3,0c-.207,0-.221-.014-.221-.228,0-.1,0-.2,0-.3s-.049-.159-.159-.155-.236,0-.354,0-.171-.043-.171-.158v-1.047c0-.113.05-.166.166-.16s.245,0,.367,0a.131.131,0,0,1,.152.147c0,.114,0,.227,0,.34,0,.17.026.193.2.194.1,0,.2,0,.3,0,.151,0,.179.029.18.186,0,.108,0,.218,0,.326s.053.171.172.169c.331,0,.662,0,.994,0,.172,0,.2.025.2.2,0,.113,0,.226,0,.339a.132.132,0,0,1-.152.148c-.122,0-.245,0-.367,0s-.164.051-.161.165.006.227,0,.34c-.007.131.052.177.178.176.539,0,1.079,0,1.619,0,.237,0,.247.01.248.243,0,.077,0,.153,0,.231,0,.188.02.207.214.208.1,0,.2,0,.3,0s.168.042.167.159q0,.524,0,1.048c0,.107-.043.157-.153.157q-.53,0-1.061,0c-.1,0-.151-.043-.148-.147,0-.122,0-.245,0-.367s-.048-.169-.164-.167-.245,0-.367,0a.131.131,0,0,0-.149.15c0,.127,0,.253,0,.38,0,.1.046.151.148.149.122,0,.245,0,.367,0s.169.049.167.164,0,.245,0,.367c0,.106-.05.156-.159.154-.177,0-.354,0-.531,0Z" transform="translate(-1021.185 -4763.111)" fill="#5078fb"/>
    <path id="Path_2453" data-name="Path 2453" d="M1023.082,4770.654h-1.51c-.158,0-.194-.034-.195-.191,0-.322,0-.644,0-.966,0-.194-.013-.206-.212-.206h-.939c-.178,0-.209-.03-.21-.2,0-.1,0-.208,0-.313,0-.122.052-.171.171-.171.327,0,.653,0,.98,0,.194,0,.21-.017.211-.208,0-.318,0-.636,0-.953,0-.173.025-.2.2-.2q.49,0,.98,0c.171,0,.191.025.193.2,0,.1,0,.2,0,.3,0,.151.031.18.185.183.113,0,.227,0,.34,0s.158.051.158.157c0,.126,0,.254,0,.38a.125.125,0,0,0,.142.142l.394,0a.127.127,0,0,1,.144.141c0,.132,0,.263,0,.4a.137.137,0,0,1-.155.148q-.524,0-1.047,0c-.114,0-.166-.05-.163-.166s0-.245,0-.366c0-.1-.045-.151-.148-.149-.127,0-.254,0-.381,0-.106,0-.146.054-.146.152,0,.123,0,.245,0,.368a.137.137,0,0,0,.156.16c.127,0,.254,0,.38,0,.1,0,.143.042.143.138,0,.127,0,.254,0,.381,0,.111.053.164.168.164q.511,0,1.021,0c.118,0,.178-.046.173-.169s0-.227,0-.34.037-.18.167-.172.254,0,.381,0c.1,0,.138.049.137.145,0,.34,0,.68,0,1.021,0,.169-.03.2-.2.2Z" transform="translate(-1019.332 -4761.788)" fill="#5078fb"/>
    <path id="Path_2454" data-name="Path 2454" d="M1030.657,4770.088c.285,0,.571,0,.856,0,.125,0,.173.048.169.169s0,.218,0,.327c0,.155-.033.187-.2.187h-.979c-.167,0-.185.019-.186.19q0,.823,0,1.645c0,.179-.028.207-.2.207h-.34a.126.126,0,0,1-.141-.143c0-.123,0-.246,0-.367s-.048-.173-.171-.172c-.331,0-.662,0-.993,0-.174,0-.2-.023-.2-.194,0-.113,0-.227,0-.34a.13.13,0,0,0-.152-.146c-.122,0-.245,0-.367,0-.1,0-.162-.042-.161-.152,0-.359,0-.716,0-1.075,0-.1.043-.139.141-.136.127,0,.254.006.38,0s.16.057.158.167,0,.245,0,.367a.125.125,0,0,0,.14.144q.538,0,1.075,0c.1,0,.145-.061.146-.158,0-.117.006-.235,0-.353s.045-.171.166-.17c.285,0,.571,0,.856,0Z" transform="translate(-1021.45 -4762.583)" fill="#5078fb"/>
    <path id="Path_2455" data-name="Path 2455" d="M1027.59,4763.875c0-.158,0-.317,0-.476,0-.188.021-.206.215-.208h.259c.186,0,.206-.022.208-.214,0-.1,0-.2,0-.3s.046-.17.159-.17.245,0,.367,0,.164.06.161.172,0,.244,0,.367c0,.1.043.143.139.143l.326,0c.188,0,.215.027.215.209,0,.109,0,.218,0,.327a.124.124,0,0,0,.139.144h.381c.112,0,.164.054.163.168,0,.345,0,.689,0,1.034,0,.113-.051.168-.164.167s-.254,0-.381,0a.126.126,0,0,1-.14-.144c0-.108,0-.218,0-.327,0-.188-.02-.207-.214-.208h-.3c-.115,0-.177-.047-.168-.173s0-.235,0-.354c0-.1-.043-.155-.146-.156-.131,0-.263,0-.394,0a.125.125,0,0,0-.141.143c0,.127,0,.254,0,.381,0,.1-.042.156-.144.157-.131,0-.263,0-.394,0a.131.131,0,0,1-.146-.154c0-.177,0-.354,0-.531Z" transform="translate(-1021.45 -4760.463)" fill="#5078fb"/>
    <path id="Path_2456" data-name="Path 2456" d="M1036.256,4768.264c0,.286,0,.571,0,.856,0,.122-.051.173-.169.173h-1.714c-.112,0-.166-.047-.165-.164q.005-.523,0-1.046c0-.111.047-.158.156-.156s.235,0,.354,0,.177-.048.173-.171,0-.236,0-.354c0-.1.039-.157.141-.157q.543,0,1.088,0c.1,0,.137.063.136.162,0,.286,0,.571,0,.857Z" transform="translate(-1023.301 -4761.788)" fill="#5078fb"/>
    <path id="Path_2457" data-name="Path 2457" d="M1029.636,4766.986c0,.173,0,.345,0,.517a.136.136,0,0,0,.155.159h.326c.178,0,.2.025.2.208,0,.09,0,.18,0,.271,0,.178-.029.206-.2.206h-.91c-.244,0-.245,0-.245.241,0,.095,0,.19,0,.285a.138.138,0,0,1-.149.156c-.131,0-.263,0-.394,0a.128.128,0,0,1-.138-.147c0-.127,0-.254,0-.38,0-.105-.049-.158-.159-.154s-.227,0-.34,0c-.153,0-.179-.029-.181-.186,0-.1,0-.2,0-.3,0-.177.02-.2.193-.2.322,0,.644,0,.966,0,.173,0,.2-.032.2-.208,0-.326,0-.652,0-.979,0-.128.048-.183.176-.178s.236,0,.354,0,.156.052.156.159C1029.635,4766.633,1029.636,4766.809,1029.636,4766.986Z" transform="translate(-1021.45 -4761.522)" fill="#5078fb"/>
    <path id="Path_2458" data-name="Path 2458" d="M1026.64,4761.714c0-.172,0-.344,0-.517a.143.143,0,0,1,.167-.164c.113,0,.227,0,.339,0,.131.008.179-.053.178-.177,0-.326,0-.652,0-.979,0-.183.024-.206.2-.208h.3c.147,0,.181.037.182.188,0,.118,0,.235,0,.354,0,.1.048.141.142.141.122,0,.244,0,.367,0s.177.05.174.171,0,.226,0,.34-.047.177-.169.173-.245,0-.367,0a.131.131,0,0,0-.148.151c0,.118,0,.236,0,.354s-.054.182-.181.176-.226,0-.339,0-.167.047-.162.166,0,.245,0,.367a.132.132,0,0,1-.151.15h-.394a.125.125,0,0,1-.141-.143v-.544Z" transform="translate(-1021.185 -4759.671)" fill="#5078fb"/>
    <path id="Path_2459" data-name="Path 2459" d="M1036.193,4771.03c.276,0,.553,0,.829,0,.158,0,.178.023.179.184,0,.1,0,.209,0,.313,0,.159-.029.186-.193.187-.109,0-.218,0-.326,0s-.164.053-.162.165,0,.245,0,.366a.13.13,0,0,1-.149.15h-.381c-.109,0-.155-.053-.153-.161s0-.235,0-.353-.052-.173-.174-.167-.236,0-.353,0-.159-.049-.156-.157,0-.245,0-.366.054-.162.166-.161C1035.612,4771.032,1035.9,4771.03,1036.193,4771.03Z" transform="translate(-1023.566 -4762.847)" fill="#5078fb"/>
    <path id="Path_2460" data-name="Path 2460" d="M1025.444,4767.242h.515a.137.137,0,0,1,.156.158c0,.122,0,.244,0,.366,0,.1-.045.162-.153.162H1024.9a.137.137,0,0,1-.155-.16c0-.122,0-.244,0-.366s.055-.162.165-.162c.177,0,.353,0,.53,0Z" transform="translate(-1020.656 -4761.787)" fill="#5078fb"/>
    <path id="Path_2461" data-name="Path 2461" d="M1027.328,4775.5c0,.163,0,.326,0,.488s-.03.187-.192.189c-.113,0-.226,0-.339,0s-.154-.044-.154-.145q0-.535,0-1.071c0-.1.043-.151.149-.149.126,0,.253,0,.38,0,.11,0,.156.055.156.159v.529Z" transform="translate(-1021.185 -4763.905)" fill="#5078fb"/>
    <path id="Path_2462" data-name="Path 2462" d="M1019.753,4770.765c0,.177,0,.353,0,.529,0,.108-.052.156-.157.156h-.367c-.1,0-.161-.046-.161-.153q0-.536,0-1.072a.125.125,0,0,1,.145-.138c.131,0,.262,0,.393,0,.105,0,.146.051.146.15,0,.177,0,.354,0,.529Z" transform="translate(-1019.068 -4762.583)" fill="#5078fb"/>
    <path id="Path_2463" data-name="Path 2463" d="M1037.741,4772.922c.172,0,.344,0,.516,0,.109,0,.158.046.156.155,0,.126,0,.253,0,.38,0,.1-.048.148-.149.148-.357,0-.715,0-1.073,0a.126.126,0,0,1-.143-.142c0-.131,0-.262,0-.393,0-.1.048-.148.15-.147.181,0,.362,0,.543,0Z" transform="translate(-1024.095 -4763.376)" fill="#5078fb"/>
    <path id="Path_2464" data-name="Path 2464" d="M1038.676,4769.821c0,.172,0,.345,0,.516,0,.113-.043.169-.159.167s-.244,0-.367,0a.137.137,0,0,1-.158-.156c0-.353,0-.706,0-1.059a.13.13,0,0,1,.148-.151c.122,0,.244,0,.367,0s.174.045.17.169C1038.671,4769.478,1038.676,4769.649,1038.676,4769.821Z" transform="translate(-1024.359 -4762.317)" fill="#5078fb"/>
    <path id="Path_2465" data-name="Path 2465" d="M1030.428,4762.854c0-.325-.061-.351.345-.346.339,0,.339,0,.339.344s0,.343-.35.345C1030.376,4763.2,1030.431,4763.187,1030.428,4762.854Z" transform="translate(-1022.244 -4760.464)" fill="#5078fb"/>
    <path id="Path_2466" data-name="Path 2466" d="M1027.59,4766.627c0-.326-.043-.334.334-.332.349,0,.349,0,.349.348s0,.337-.331.339C1027.549,4766.982,1027.592,4766.994,1027.59,4766.627Z" transform="translate(-1021.45 -4761.522)" fill="#5078fb"/>
    <path id="Path_2467" data-name="Path 2467" d="M1028.868,4765.353c.362,0,.356-.028.353.357,0,.327,0,.326-.331.328-.389,0-.354.016-.355-.353C1028.535,4765.352,1028.535,4765.352,1028.868,4765.353Z" transform="translate(-1021.714 -4761.258)" fill="#5078fb"/>
    <path id="Path_2468" data-name="Path 2468" d="M1038.34,4774.814c.357,0,.336-.022.336.339s.021.344-.346.344c-.337,0-.336,0-.338-.34C1037.989,4774.78,1037.985,4774.813,1038.34,4774.814Z" transform="translate(-1024.359 -4763.905)" fill="#5078fb"/>
    <path id="Path_2469" data-name="Path 2469" d="M1034.554,4778.333c-.361,0-.344.033-.344-.345,0-.353-.024-.338.339-.338s.344-.014.344.347S1034.91,4778.333,1034.554,4778.333Z" transform="translate(-1023.302 -4764.698)" fill="#5078fb"/>
    <path id="Path_2470" data-name="Path 2470" d="M1029.823,4762.247c-.37,0-.341.026-.34-.335,0-.344-.049-.352.344-.348.338,0,.338,0,.338.332v.014C1030.173,4762.3,1030.151,4762.243,1029.823,4762.247Z" transform="translate(-1021.979 -4760.2)" fill="#5078fb"/>
    <path id="Path_2471" data-name="Path 2471" d="M1030.754,4761.3c-.366,0-.326,0-.326-.326,0-.37-.045-.361.361-.359.323,0,.321,0,.323.321C1031.113,4761.331,1031.134,4761.3,1030.754,4761.3Z" transform="translate(-1022.244 -4759.936)" fill="#5078fb"/>
    <path id="Path_2472" data-name="Path 2472" d="M1019.426,4768.192c.328,0,.328,0,.328.323,0,.383.022.362-.362.361-.324,0-.323,0-.324-.319C1019.066,4768.163,1019.053,4768.192,1019.426,4768.192Z" transform="translate(-1019.067 -4762.053)" fill="#5078fb"/>
    <path id="Path_2473" data-name="Path 2473" d="M1027.328,4765.7c0,.339,0,.339-.343.339s-.344,0-.346-.348c0-.377,0-.335.342-.336S1027.328,4765.353,1027.328,4765.7Z" transform="translate(-1021.184 -4761.258)" fill="#5078fb"/>
    <path id="Path_2474" data-name="Path 2474" d="M1027.928,4779.278c-.359,0-.339.023-.339-.339s-.016-.345.337-.344.345,0,.348.349C1028.277,4779.322,1028.269,4779.277,1027.928,4779.278Z" transform="translate(-1021.45 -4764.962)" fill="#5078fb"/>
    <path id="Path_2475" data-name="Path 2475" d="M1020.961,4762.573c0-.272,0-.545,0-.816,0-.157.035-.191.193-.192h1.673c.151,0,.182.032.182.186,0,.563,0,1.125,0,1.687,0,.128-.048.179-.177.178-.562,0-1.125,0-1.686,0-.153,0-.184-.032-.186-.183C1020.959,4763.144,1020.961,4762.858,1020.961,4762.573Z" transform="translate(-1019.596 -4760.2)" fill="#5078fb"/>
    <path id="Path_2476" data-name="Path 2476" d="M1021.979,4776.858h-.83c-.154,0-.188-.031-.188-.179,0-.562,0-1.125,0-1.687,0-.124.044-.182.177-.181q.849.007,1.7,0c.122,0,.173.045.173.167q0,.857,0,1.713c0,.121-.052.17-.174.167-.285,0-.571,0-.857,0Z" transform="translate(-1019.596 -4763.904)" fill="#5078fb"/>
    <path id="Path_2477" data-name="Path 2477" d="M1035.22,4763.613h-.816c-.169,0-.192-.024-.192-.187q0-.836,0-1.672c0-.158.03-.188.192-.188h1.659c.161,0,.192.031.192.189q0,.836,0,1.672c0,.161-.027.187-.192.187Z" transform="translate(-1023.302 -4760.2)" fill="#5078fb"/>
  </g>
</svg>
