<svg id="Group_3410" data-name="Group 3410" xmlns="http://www.w3.org/2000/svg" xmlns:xlink="http://www.w3.org/1999/xlink" width="30.334" height="42.681" viewBox="0 0 30.334 42.681">
  <defs>
    <clipPath id="clip-path">
      <rect id="Rectangle_96" data-name="Rectangle 96" width="30.334" height="42.681" fill="#4d4f5c"/>
    </clipPath>
  </defs>
  <g id="Group_3410-2" data-name="Group 3410" clip-path="url(#clip-path)">
    <path id="Path_124" data-name="Path 124" d="M26.765,14.428q0,1.577,0,3.153a.371.371,0,0,0,.092.257,14.905,14.905,0,0,1,3.017,5.929,15.141,15.141,0,0,1,.43,4.713,15.107,15.107,0,0,1-3.36,8.585,15.289,15.289,0,0,1-4.757,3.887,15.461,15.461,0,0,1-4.539,1.526,15.055,15.055,0,0,1-3.294.183,14.532,14.532,0,0,1-2.613-.382,15.184,15.184,0,0,1-9.961-7.661A15.288,15.288,0,0,1,.006,27.153a15.525,15.525,0,0,1,.7-4.213A15.279,15.279,0,0,1,3.05,18.385c.134-.179.273-.355.419-.524a.5.5,0,0,0,.125-.353q-.011-2.2-.013-4.407c0-.676-.011-1.353.014-2.029A11.213,11.213,0,0,1,7.012,3.267,11.345,11.345,0,0,1,12.345.3,10.523,10.523,0,0,1,14.71.005a13.072,13.072,0,0,1,2.739.181,11.495,11.495,0,0,1,8.265,6.453,10.71,10.71,0,0,1,.976,3.579,22.52,22.52,0,0,1,.076,2.271c0,.646,0,1.292,0,1.938Zm-20.709.927a15.221,15.221,0,0,1,18.228-.006v-.113c0-1.322.006-2.645-.006-3.967a8,8,0,0,0-.091-1.2,8.945,8.945,0,0,0-6.43-7.265,10.256,10.256,0,0,0-3.133-.313A8.811,8.811,0,0,0,7.991,5.861a8.86,8.86,0,0,0-1.934,5.587c-.008,1.215,0,2.429,0,3.644v.263M13.43,31.7c.046,0,.075.007.1.007q1.621,0,3.242,0c.093,0,.14-.021.123-.122-.006-.038,0-.078-.007-.116q-.12-.981-.24-1.961c-.07-.559-.144-1.118-.209-1.678a.22.22,0,0,1,.064-.173,2.375,2.375,0,0,0,1.031-2.234,2.223,2.223,0,0,0-1.3-1.891,2.379,2.379,0,0,0-3.405,2.594,2.318,2.318,0,0,0,.938,1.479.29.29,0,0,1,.117.31c-.063.46-.117.922-.174,1.383q-.1.827-.2,1.653c-.03.246-.058.493-.087.747" transform="translate(0 0)" fill="#4d4f5c"/>
  </g>
</svg>
