<svg id="Group_3467" data-name="Group 3467" xmlns="http://www.w3.org/2000/svg" xmlns:xlink="http://www.w3.org/1999/xlink" width="42.173" height="50.901" viewBox="0 0 42.173 50.901">
  <defs>
    <clipPath id="clip-path">
      <rect id="Rectangle_362" data-name="Rectangle 362" width="42.173" height="50.901" fill="none"/>
    </clipPath>
  </defs>
  <g id="Group_3466" data-name="Group 3466" clip-path="url(#clip-path)">
    <path id="Path_1485" data-name="Path 1485" d="M83.679,146.779v-14.61l-.168-.09-6.841,8.5L69.8,132.148l-.137.073v13.04a7.241,7.241,0,0,1-7.826-7.371q.045-10.254.063-20.509a7.049,7.049,0,0,0-.033-1.029c-.068-.47.121-.6.566-.6a7.2,7.2,0,0,1,5.719,2.681q4.1,4.9,8.166,9.831c.287.348.448.365.735.015,2.628-3.206,5.275-6.4,7.9-9.6a7.651,7.651,0,0,1,6.07-2.962c.376-.006.44.132.439.468q-.023,6.445-.023,12.89-.005,8.193,0,16.385c0,.335.03.67.054,1.163a6.439,6.439,0,0,0-3.957-1.367,5.94,5.94,0,0,0-3.858,1.525" transform="translate(-55.362 -103.598)" fill="#ff8587"/>
    <path id="Path_1486" data-name="Path 1486" d="M3.548,32.464A20.518,20.518,0,0,1,7.227,5.313,20.812,20.812,0,0,1,36.738,7.062,20.575,20.575,0,0,1,38.35,32.94c.213-1.479-.158-2.8.465-4.153a18.286,18.286,0,0,0,1.537-9.1A18.643,18.643,0,0,0,36.72,9.652a18.792,18.792,0,0,0-16.779-7.8A18.532,18.532,0,0,0,6.57,8.278a18.768,18.768,0,0,0-4.7,10.9,18.924,18.924,0,0,0,1.448,9.456c.529,1.247.175,2.548.234,3.828" transform="translate(0 0)" fill="#fdcf71"/>
    <path id="Path_1487" data-name="Path 1487" d="M281.092,421.232a3.584,3.584,0,0,1-3.5,3.463,3.593,3.593,0,1,1,3.5-3.463" transform="translate(-245.254 -373.793)" fill="#f06463"/>
  </g>
</svg>
