<svg xmlns="http://www.w3.org/2000/svg" xmlns:xlink="http://www.w3.org/1999/xlink" width="25.93" height="27.87" viewBox="0 0 25.93 27.87">
  <defs>
    <clipPath id="clip-path">
      <rect id="Rectangle_84" data-name="Rectangle 84" width="18.461" height="22.288" fill="#4d4f5c"/>
    </clipPath>
  </defs>
  <g id="Group_88" data-name="Group 88" transform="matrix(0.914, 0.407, -0.407, 0.914, 9.065, 0)">
    <g id="Group_87" data-name="Group 87" clip-path="url(#clip-path)">
      <path id="Path_95" data-name="Path 95" d="M44.353,0c.045.036.079.058.107.086l6.889,6.891c.226.226.449.454.676.677.08.079.078.12-.027.183q-2.589,1.532-5.174,3.071L43.7,12.761c-.091.054-.177.115-.266.174L39.2,8.683,44.353,0" transform="translate(-33.62)" fill="#4d4f5c"/>
      <path id="Path_96" data-name="Path 96" d="M5.013,66.03l4.1,4.079c-.259.267-.509.532-.766.788-1.087,1.085-2.179,2.163-3.263,3.251a3.1,3.1,0,0,1-1.879.97A2.917,2.917,0,0,1,.033,72.683a2.81,2.81,0,0,1,.782-2.458c1.374-1.4,2.768-2.779,4.153-4.166a.26.26,0,0,1,.045-.029M1.532,71.659a.44.44,0,0,0,.3.412.429.429,0,0,0,.486-.11q1.478-1.475,2.955-2.952a1.13,1.13,0,0,0,.227-.291.381.381,0,0,0,.017-.276.417.417,0,0,0-.711-.174c-.127.1-.242.225-.358.341q-1.382,1.384-2.759,2.771a1.175,1.175,0,0,0-.154.278m5.49-1.58a.51.51,0,0,0-.283-.451.374.374,0,0,0-.45.091c-.082.077-.163.153-.243.232Q4.7,71.3,3.357,72.643a3.008,3.008,0,0,0-.271.3.334.334,0,0,0-.012.4.4.4,0,0,0,.681.094c.427-.406.844-.824,1.261-1.241q.907-.907,1.806-1.822a1.967,1.967,0,0,0,.2-.293" transform="translate(0 -56.636)" fill="#4d4f5c"/>
      <path id="Path_97" data-name="Path 97" d="M42.813,117.068l.753-.757c.142-.142.289-.279.426-.426.064-.068.1-.072.168,0,1.355,1.36,2.714,2.715,4.066,4.078a1.569,1.569,0,0,1,.346.5.892.892,0,0,1-.849,1.176,1.109,1.109,0,0,1-.733-.39q-.879-.888-1.764-1.769-1.172-1.171-2.346-2.34c-.02-.02-.038-.041-.066-.072" transform="translate(-36.722 -99.352)" fill="#4d4f5c"/>
      <path id="Path_98" data-name="Path 98" d="M62.487,104.617c-.353-.363-.691-.7-1.014-1.052a.329.329,0,0,1-.041-.256c.051-.229.124-.454.192-.68a.213.213,0,0,0-.073-.245c-.432-.419-.854-.847-1.293-1.286l.968-.979c.478.469.942.923,1.4,1.379.121.12.234.249.347.378a.539.539,0,0,1,.131.5c-.175.7-.361,1.391-.544,2.085a1.25,1.25,0,0,1-.076.159" transform="translate(-51.686 -85.875)" fill="#4d4f5c"/>
    </g>
  </g>
</svg>
