<svg id="Group_21" data-name="Group 21" xmlns="http://www.w3.org/2000/svg" xmlns:xlink="http://www.w3.org/1999/xlink" width="19.481" height="18.169" viewBox="0 0 19.481 18.169">
  <defs>
    <clipPath id="clip-path">
      <rect id="Rectangle_14" data-name="Rectangle 14" width="8.945" height="15.427" fill="#fff"/>
    </clipPath>
    <clipPath id="clip-path-2">
      <rect id="Rectangle_14-2" data-name="Rectangle 14" width="10.535" height="18.169" fill="#fff"/>
    </clipPath>
  </defs>
  <g id="Group_19" data-name="Group 19" transform="translate(10.535 1.371)">
    <g id="Group_18" data-name="Group 18" clip-path="url(#clip-path)">
      <path id="Path_6" data-name="Path 6" d="M0,7.718a1.141,1.141,0,0,0,.342.833Q1.534,9.741,2.728,10.93q.95.949,1.9,1.9L6.85,15.05a1.231,1.231,0,0,0,.621.35,1.14,1.14,0,0,0,.982-.24,1.263,1.263,0,0,0,.478-.781,1.03,1.03,0,0,0-.126-.664,1.922,1.922,0,0,0-.383-.469Q7.3,12.122,6.166,11,5.083,9.923,4,8.843q-.508-.507-1.017-1.013c-.106-.105-.106-.1,0-.209L4.916,5.7,7.1,3.512c.493-.492.988-.982,1.479-1.477a1.192,1.192,0,0,0,.361-.757A1.022,1.022,0,0,0,8.8.692,1.428,1.428,0,0,0,8.186.11a1.011,1.011,0,0,0-.934.008,1.585,1.585,0,0,0-.445.327Q5.783,1.468,4.757,2.488L2.533,4.71Q1.442,5.8.35,6.889A1.11,1.11,0,0,0,0,7.718" transform="translate(0 0)" fill="#fff"/>
    </g>
  </g>
  <g id="Group_20" data-name="Group 20" transform="translate(0)">
    <g id="Group_18-2" data-name="Group 18" clip-path="url(#clip-path-2)">
      <path id="Path_6-2" data-name="Path 6" d="M0,9.09a1.343,1.343,0,0,0,.4.981q1.4,1.4,2.809,2.8,1.119,1.117,2.237,2.236l2.618,2.616a1.449,1.449,0,0,0,.731.412,1.342,1.342,0,0,0,1.157-.283,1.488,1.488,0,0,0,.563-.92,1.214,1.214,0,0,0-.148-.782A2.263,2.263,0,0,0,9.92,15.6q-1.327-1.324-2.658-2.644-1.275-1.27-2.548-2.542-.6-.6-1.2-1.193c-.125-.124-.125-.122,0-.246L5.79,6.709,8.366,4.137c.581-.58,1.163-1.157,1.741-1.739a1.4,1.4,0,0,0,.425-.891,1.2,1.2,0,0,0-.171-.691A1.682,1.682,0,0,0,9.641.13a1.191,1.191,0,0,0-1.1.009,1.866,1.866,0,0,0-.524.385Q6.811,1.729,5.6,2.931,4.292,4.238,2.983,5.547,1.7,6.831.412,8.114A1.307,1.307,0,0,0,0,9.09" transform="translate(0 0)" fill="#fff"/>
    </g>
  </g>
</svg>
