<svg id="Group_3538" data-name="Group 3538" xmlns="http://www.w3.org/2000/svg" xmlns:xlink="http://www.w3.org/1999/xlink" width="42.048" height="49.203" viewBox="0 0 42.048 49.203">
  <defs>
    <clipPath id="clip-path">
      <rect id="Rectangle_412" data-name="Rectangle 412" width="42.048" height="49.203" fill="#f06463"/>
    </clipPath>
  </defs>
  <g id="Group_3537" data-name="Group 3537" clip-path="url(#clip-path)">
    <path id="Path_1537" data-name="Path 1537" d="M1.963,49.2A2.632,2.632,0,0,1,.08,47.345,3.423,3.423,0,0,1,0,46.572Q0,24.609,0,2.645A2.434,2.434,0,0,1,2.613.015q3.4-.008,6.792,0A16.677,16.677,0,0,1,11.4.046,2.278,2.278,0,0,1,13.6,2.5,2.367,2.367,0,0,0,16.12,4.918c3.371.023,6.743.016,10.114,0a2.1,2.1,0,0,0,2.173-2.126C28.363.834,29.858.127,31.3.051c1.478-.078,2.963-.033,4.445-.037,1.254,0,2.508-.008,3.762,0a2.421,2.421,0,0,1,2.539,2.556q.006,17.59-.013,35.181a1.185,1.185,0,0,1-.353.736Q36.5,43.674,31.3,48.834a4.561,4.561,0,0,0-.3.369ZM39.586,34.444v-.42q0-15.051,0-30.1c0-.994-.468-1.45-1.476-1.453-1.6,0-3.192,0-4.789,0s-2.332.68-2.414,2.274a2.289,2.289,0,0,1-1.02,1.852,4.369,4.369,0,0,1-2.531.77c-4.349.017-8.7.025-13.047-.012a5.282,5.282,0,0,1-1.88-.438,2,2,0,0,1-1.293-1.953,4.976,4.976,0,0,0-.089-.825,1.877,1.877,0,0,0-2-1.668q-2.541,0-5.082,0c-1.06,0-1.505.451-1.505,1.521q0,20.621,0,41.242c0,1.052.465,1.514,1.523,1.514H27.2v-.662q0-4.471,0-8.942a2.494,2.494,0,0,1,2.715-2.7q4.544,0,9.089,0Zm-9.9,12.224L39.3,36.9H31.265c-1.159,0-1.575.421-1.576,1.6q0,3.809,0,7.619Z" transform="translate(0 0)" fill="#f06463"/>
    <rect id="Rectangle_408" data-name="Rectangle 408" width="7.379" height="2.389" transform="translate(17.334 0.042)" fill="#f06463"/>
    <rect id="Rectangle_409" data-name="Rectangle 409" width="22.21" height="2.409" transform="translate(9.923 17.251)" fill="#f06463"/>
    <rect id="Rectangle_410" data-name="Rectangle 410" width="22.216" height="2.4" transform="translate(9.912 25.859)" fill="#f06463"/>
    <rect id="Rectangle_411" data-name="Rectangle 411" width="12.326" height="2.403" transform="translate(9.914 34.469)" fill="#f06463"/>
  </g>
</svg>
