<svg xmlns="http://www.w3.org/2000/svg" xmlns:xlink="http://www.w3.org/1999/xlink" width="32.644" height="42.78" viewBox="0 0 32.644 42.78">
  <defs>
    <clipPath id="clip-path">
      <rect id="Rectangle_95" data-name="Rectangle 95" width="32.644" height="42.78" fill="#f26968"/>
    </clipPath>
  </defs>
  <g id="Group_3406" data-name="Group 3406" transform="translate(-8.32 18.27)">
    <g id="Group_3403" data-name="Group 3403" transform="translate(8.32 -18.27)" clip-path="url(#clip-path)">
      <path id="Path_112" data-name="Path 112" d="M21.457.259c.038.794.064,1.553.118,2.311.018.249-.063.3-.292.3q-7.328-.005-14.656,0c-.964,0-1.928,0-2.892.008A.957.957,0,0,0,2.691,3.922q-.007,5.823-.008,11.646c0,1.473-.035,2.947-.037,4.42,0,1.134.035,2.269.036,3.4,0,5.235.01,10.471-.011,15.706a1.133,1.133,0,0,0,1.218,1.2c5.647-.018,11.294-.011,16.942-.011q4.008,0,8.017,0a.982.982,0,0,0,1.018-.552,1.589,1.589,0,0,0,.1-.617q.005-6.881,0-13.762,0-3.512,0-7.024,0-3.341-.009-6.681c0-.07.012-.14.02-.225l2.653.218a1.494,1.494,0,0,1,.015.17c0,1.483,0,2.966-.008,4.449-.008,1.45-.027,2.9-.037,4.349-.006.915-.005,1.829,0,2.744q.015,8.035.032,16.07c0,.575,0,1.151,0,1.726a1.708,1.708,0,0,1-1.806,1.8H9.065q-3.67,0-7.34,0A1.7,1.7,0,0,1,.066,41.7,3.414,3.414,0,0,1,0,40.9q0-8.8.005-17.6c0-1.084.022-2.167.021-3.251Q.018,11.311,0,2.571c0-.211.01-.421.005-.632A1.688,1.688,0,0,1,1.735.222c.17,0,.34-.006.51-.006q9.127,0,18.254,0c.33,0,.659.027.957.04" transform="translate(0 -0.174)" fill="#f26968"/>
      <path id="Path_113" data-name="Path 113" d="M126.644,10c-.785-.072-1.55-.141-2.316-.214-1.1-.1-2.192-.205-3.287-.319q-1.279-.133-2.556-.3c-.358-.046-.432-.153-.455-.565-.052-.922-.1-1.844-.151-2.766q-.156-2.62-.321-5.24a.5.5,0,0,1,.254-.556.465.465,0,0,1,.563.162q1.468,1.5,2.932,3.013,1.814,1.88,3.618,3.77,1.043,1.087,2.088,2.172c.155.161.314.321.189.572a.53.53,0,0,1-.558.267" transform="translate(-94.609 0)" fill="#f26968"/>
      <path id="Path_114" data-name="Path 114" d="M35.456,160.695c.656,0,1.312,0,1.968,0a1.394,1.394,0,0,1,1.561,1.557c0,.721,0,1.442-.007,2.163a1.4,1.4,0,0,1-.545,1.189,1.419,1.419,0,0,1-.867.265c-1.36,0-2.721.01-4.081-.006a1.339,1.339,0,0,1-1.439-1.468q0-1.142,0-2.284a1.328,1.328,0,0,1,1.395-1.414c.34-.006.68-.006,1.02-.007s.664,0,1,0Z" transform="translate(-25.788 -129.324)" fill="#f26968"/>
      <path id="Path_115" data-name="Path 115" d="M102.976,160.7c.68,0,1.36-.008,2.04,0a1.326,1.326,0,0,1,1.421,1.04,1.379,1.379,0,0,1,.036.336c0,.794.006,1.587,0,2.381a1.332,1.332,0,0,1-1.418,1.417c-1.336,0-2.672,0-4.007,0a1.454,1.454,0,0,1-1.252-.57,1.487,1.487,0,0,1-.249-.9c-.012-.777-.022-1.555-.005-2.332a1.359,1.359,0,0,1,1.4-1.374c.68-.01,1.36,0,2.04,0Z" transform="translate(-80.1 -129.323)" fill="#f26968"/>
      <path id="Path_116" data-name="Path 116" d="M66.349,108.1H60.374c-.1,0-.194,0-.291-.014a.688.688,0,0,1-.662-.655.709.709,0,0,1,.559-.748,1.642,1.642,0,0,1,.36-.041q6,0,12,0a3,3,0,0,1,.507.044.719.719,0,0,1,.6.722.659.659,0,0,1-.635.672c-.533.028-1.067.024-1.6.025q-2.429,0-4.858,0Z" transform="translate(-47.82 -85.822)" fill="#f26968"/>
      <path id="Path_117" data-name="Path 117" d="M66.435,131.945c2.034,0,4.067,0,6.1,0a1.563,1.563,0,0,1,.566.091.694.694,0,0,1,.367.687.676.676,0,0,1-.562.622,8.388,8.388,0,0,1-1.088.046q-5.7,0-11.4-.005a1.612,1.612,0,0,1-.651-.145.7.7,0,0,1,.3-1.291c.1-.008.194-.008.291-.008h6.077" transform="translate(-47.838 -106.189)" fill="#f26968"/>
      <path id="Path_118" data-name="Path 118" d="M66.429,81.649q2.94,0,5.879,0a3.2,3.2,0,0,1,.579.044.69.69,0,0,1,.548.629.68.68,0,0,1-.44.687,1.348,1.348,0,0,1-.447.087q-6.171.007-12.342,0a.748.748,0,0,1-.8-.728.764.764,0,0,1,.785-.724c.729.011,1.458,0,2.186,0h4.057" transform="translate(-47.805 -65.711)" fill="#f26968"/>
      <path id="Path_119" data-name="Path 119" d="M66.407,58.028q-2.989,0-5.977,0a2.363,2.363,0,0,1-.5-.047.674.674,0,0,1-.517-.7.692.692,0,0,1,.557-.648,2.25,2.25,0,0,1,.387-.032q6.038,0,12.076,0c.345,0,.7-.02.913.36a.7.7,0,0,1-.449,1.026,2.629,2.629,0,0,1-.507.038q-2.989,0-5.977,0" transform="translate(-47.81 -45.55)" fill="#f26968"/>
      <path id="Path_120" data-name="Path 120" d="M41.725,131.843a.994.994,0,0,1-.966,1.009.992.992,0,1,1,.966-1.009" transform="translate(-32.017 -105.323)" fill="#f26968"/>
      <path id="Path_121" data-name="Path 121" d="M41.738,106.8a1.031,1.031,0,0,1-.964,1.024,1.019,1.019,0,0,1-.969-1.041.931.931,0,0,1,.937-.94.944.944,0,0,1,1,.956" transform="translate(-32.035 -85.182)" fill="#f26968"/>
      <path id="Path_122" data-name="Path 122" d="M41.726,56.623a.905.905,0,0,1-.894.948.991.991,0,0,1-1.033-.994.964.964,0,0,1,.959-.957.923.923,0,0,1,.969,1" transform="translate(-32.029 -44.764)" fill="#f26968"/>
      <path id="Path_123" data-name="Path 123" d="M41.741,81.675a.967.967,0,1,1-1.933-.029.969.969,0,0,1,.972-.946.948.948,0,0,1,.96.974" transform="translate(-32.037 -64.948)" fill="#f26968"/>
    </g>
  </g>
</svg>
