<svg xmlns="http://www.w3.org/2000/svg" xmlns:xlink="http://www.w3.org/1999/xlink" width="51" height="51" viewBox="0 0 51 51">
  <defs>
    <filter id="Path_1556" x="0" y="0" width="51" height="51" filterUnits="userSpaceOnUse">
      <feOffset input="SourceAlpha"/>
      <feGaussianBlur stdDeviation="1.5" result="blur"/>
      <feFlood flood-opacity="0.11"/>
      <feComposite operator="in" in2="blur"/>
      <feComposite in="SourceGraphic"/>
    </filter>
    <clipPath id="clip-path">
      <rect id="Rectangle_26" data-name="Rectangle 26" width="16" height="21.602" fill="#ff8587"/>
    </clipPath>
  </defs>
  <g id="Group_32" data-name="Group 32" transform="translate(-297.97 -33.97)">
    <g transform="matrix(1, 0, 0, 1, 297.97, 33.97)" filter="url(#Path_1556)">
      <g id="Path_1556-2" data-name="Path 1556" transform="translate(4.5 4.5)" fill="#fff" opacity="0.14">
        <path d="M 32 40.5 L 10 40.5 C 5.313079833984375 40.5 1.5 36.68692016601562 1.5 32 L 1.5 10 C 1.5 5.313079833984375 5.313079833984375 1.5 10 1.5 L 32 1.5 C 36.68692016601562 1.5 40.5 5.313079833984375 40.5 10 L 40.5 32 C 40.5 36.68692016601562 36.68692016601562 40.5 32 40.5 Z" stroke="none"/>
        <path d="M 10 3 C 6.140190124511719 3 3 6.140190124511719 3 10 L 3 32 C 3 35.85980987548828 6.140190124511719 39 10 39 L 32 39 C 35.85980987548828 39 39 35.85980987548828 39 32 L 39 10 C 39 6.140190124511719 35.85980987548828 3 32 3 L 10 3 M 10 0 L 32 0 C 37.52285003662109 0 42 4.477149963378906 42 10 L 42 32 C 42 37.52285003662109 37.52285003662109 42 32 42 L 10 42 C 4.477149963378906 42 0 37.52285003662109 0 32 L 0 10 C 0 4.477149963378906 4.477149963378906 0 10 0 Z" stroke="none" fill="#ff8587"/>
      </g>
    </g>
    <g id="Group_24" data-name="Group 24" transform="translate(315.47 48.669)">
      <g id="Group_23" data-name="Group 23" clip-path="url(#clip-path)">
        <path id="Path_82" data-name="Path 82" d="M14.8,16.738a3.988,3.988,0,0,1-2.866,1.175q-3.933,0-7.867,0a3.967,3.967,0,0,1-2.295-.683A3.9,3.9,0,0,1,.013,14.22a4.41,4.41,0,0,1,.121-1.394c.4-1.7.8-3.408,1.2-5.11a6.556,6.556,0,0,1,1.047-2.29A6.447,6.447,0,0,1,3.714,4.01,6.854,6.854,0,0,1,6.369,2.72c.229-.052.463-.087.7-.121.085-.012.112-.037.111-.128q-.008-.839,0-1.679A.794.794,0,0,1,7.8.021.788.788,0,0,1,8.69.447a1.059,1.059,0,0,1,.085.41c.009.534,0,1.069,0,1.6,0,.084.012.124.11.138a6.618,6.618,0,0,1,1.838.5,6.785,6.785,0,0,1,2.592,1.971,7.368,7.368,0,0,1,1.41,2.977c.349,1.537.731,3.067,1.1,4.6a4.561,4.561,0,0,1,.113,1.952A4.113,4.113,0,0,1,14.8,16.738" transform="translate(0 -0.001)" fill="#ff8587"/>
        <path id="Path_83" data-name="Path 83" d="M71.845,258.438l6.2.008a3.376,3.376,0,0,1-6.2-.008" transform="translate(-66.408 -238.881)" fill="#ff8587"/>
      </g>
    </g>
  </g>
</svg>
