<svg xmlns="http://www.w3.org/2000/svg" xmlns:xlink="http://www.w3.org/1999/xlink" width="25.582" height="28.141" viewBox="0 0 25.582 28.141">
  <defs>
    <clipPath id="clip-path">
      <rect id="Rectangle_25" data-name="Rectangle 25" width="25.582" height="28.141" fill="#a8b5c8"/>
    </clipPath>
  </defs>
  <g id="Group_42" data-name="Group 42" transform="translate(0 0)">
    <g id="Group_41" data-name="Group 41" transform="translate(0 0)" clip-path="url(#clip-path)">
      <path id="Path_17" data-name="Path 17" d="M17.925,23.007a5.127,5.127,0,1,1-10.254.011c-.033,0-.067-.007-.1-.007-1.157,0-2.314.016-3.47-.01A4.076,4.076,0,0,1,.813,21.279a4.084,4.084,0,0,1-.724-1.6,4.185,4.185,0,0,1-.048-1.448A4.092,4.092,0,0,1,.7,16.484,13.82,13.82,0,0,0,2.275,13.3a13.177,13.177,0,0,0,.64-2.871c.075-.721.139-1.444.247-2.159A9.438,9.438,0,0,1,4.187,5.192a9.727,9.727,0,0,1,3.463-3.7A9.565,9.565,0,0,1,10.453.3,9.273,9.273,0,0,1,13.688.047,9.706,9.706,0,0,1,20.1,3.313,9.3,9.3,0,0,1,22.37,7.981c.119.686.167,1.383.253,2.074A17.23,17.23,0,0,0,23.1,12.59a14.224,14.224,0,0,0,1.854,4,3.664,3.664,0,0,1,.569,1.445,4.146,4.146,0,0,1-.9,3.44,4.081,4.081,0,0,1-3.245,1.531c-1.061.008-2.123,0-3.184,0h-.265M12.79,20.478v-.005h.245q3.837,0,7.675,0a8.463,8.463,0,0,0,.99-.036,1.646,1.646,0,0,0,1.334-1.5,2.141,2.141,0,0,0-.383-1.222c-.325-.539-.649-1.08-.932-1.642a15.431,15.431,0,0,1-1.506-4.884c-.088-.646-.168-1.294-.225-1.944A7.246,7.246,0,0,0,19.57,7.3,7.115,7.115,0,0,0,15.445,3.07a6.693,6.693,0,0,0-1.881-.451,7.427,7.427,0,0,0-2.3.118A7.051,7.051,0,0,0,7.374,5.023,7.251,7.251,0,0,0,5.938,7.531a10.25,10.25,0,0,0-.4,2.352,21.5,21.5,0,0,1-.357,2.471,16.065,16.065,0,0,1-1.831,4.717c-.194.333-.417.649-.595.99a1.559,1.559,0,0,0,.1,1.7,1.7,1.7,0,0,0,1.515.72q4.212-.006,8.424,0m.006,2.529H11.545c-.4,0-.8,0-1.2,0-.089,0-.138.02-.118.124.041.218.056.442.116.654a2.567,2.567,0,0,0,5.018-.654c0-.1-.019-.126-.118-.126-.816,0-1.632,0-2.449,0" transform="translate(0 0)" fill="#a8b5c8"/>
    </g>
  </g>
</svg>
