<svg xmlns="http://www.w3.org/2000/svg" xmlns:xlink="http://www.w3.org/1999/xlink" width="23.557" height="34.444" viewBox="0 0 23.557 34.444">
  <defs>
    <clipPath id="clip-path">
      <rect id="Rectangle_32" data-name="Rectangle 32" width="23.557" height="34.444" fill="none"/>
    </clipPath>
    <clipPath id="clip-path-2">
      <rect id="Rectangle_33" data-name="Rectangle 33" width="12.119" height="17.615" fill="none"/>
    </clipPath>
    <clipPath id="clip-path-3">
      <rect id="Rectangle_34" data-name="Rectangle 34" width="10.232" height="19.502" fill="none"/>
    </clipPath>
  </defs>
  <g id="Group_60" data-name="Group 60" transform="translate(0 0)">
    <g id="Group_55" data-name="Group 55" transform="translate(0 0)">
      <g id="Group_54" data-name="Group 54" clip-path="url(#clip-path)">
        <path id="Path_33" data-name="Path 33" d="M15.828,134.053c-2.268,0-4.537.037-6.8-.011a4.325,4.325,0,0,1-4.187-2.618,4.939,4.939,0,0,1-.409-1.825,14.712,14.712,0,0,1,.938-5.992,5.437,5.437,0,0,1,3.462-3.486,3,3,0,0,1,2.974.384,7.058,7.058,0,0,0,2.683,1.3,6.067,6.067,0,0,0,4.572-.746c.2-.11.384-.24.574-.364a3.731,3.731,0,0,1,4.641.1,6.619,6.619,0,0,1,2.385,3.676,14.75,14.75,0,0,1,.588,5.564,4.259,4.259,0,0,1-3.744,3.926,10.043,10.043,0,0,1-1.549.092c-2.041.01-4.083,0-6.124,0v-.005" transform="translate(-3.74 -101.438)" fill="#5078fb"/>
        <path id="Path_34" data-name="Path 34" d="M41.191,46.982a6.605,6.605,0,1,1,6.651-6.553,6.607,6.607,0,0,1-6.651,6.553" transform="translate(-29.292 -28.57)" fill="#ff9c41"/>
      </g>
    </g>
    <g id="Group_57" data-name="Group 57" transform="translate(0 16.829)">
      <g id="Group_56" data-name="Group 56" clip-path="url(#clip-path-2)">
        <path id="Path_35" data-name="Path 35" d="M15.828,134.053c-2.268,0-4.537.037-6.8-.011a4.325,4.325,0,0,1-4.187-2.618,4.939,4.939,0,0,1-.409-1.825,14.712,14.712,0,0,1,.938-5.992,5.437,5.437,0,0,1,3.462-3.486,3,3,0,0,1,2.974.384,7.058,7.058,0,0,0,2.683,1.3,6.067,6.067,0,0,0,4.572-.746c.2-.11.384-.24.574-.364a3.731,3.731,0,0,1,4.641.1,6.619,6.619,0,0,1,2.385,3.676,14.75,14.75,0,0,1,.588,5.564,4.259,4.259,0,0,1-3.744,3.926,10.043,10.043,0,0,1-1.549.092c-2.041.01-4.083,0-6.124,0v-.005" transform="translate(-3.74 -118.267)" fill="#688cfc"/>
      </g>
    </g>
    <g id="Group_59" data-name="Group 59" transform="translate(1.887 0)">
      <g id="Group_58" data-name="Group 58" clip-path="url(#clip-path-3)">
        <path id="Path_36" data-name="Path 36" d="M41.191,46.982a6.605,6.605,0,1,1,6.651-6.553,6.607,6.607,0,0,1-6.651,6.553" transform="translate(-31.179 -28.57)" fill="#ffa75f"/>
      </g>
    </g>
  </g>
</svg>
