<svg id="Group_25" data-name="Group 25" xmlns="http://www.w3.org/2000/svg" xmlns:xlink="http://www.w3.org/1999/xlink" width="21.084" height="21.081" viewBox="0 0 21.084 21.081">
  <defs>
    <clipPath id="clip-path">
      <rect id="Rectangle_18" data-name="Rectangle 18" width="21.084" height="21.081" fill="#688cfc"/>
    </clipPath>
  </defs>
  <g id="Group_24" data-name="Group 24" transform="translate(0 0)" clip-path="url(#clip-path)">
    <path id="Path_7" data-name="Path 7" d="M2.579,17.458a11.239,11.239,0,0,1-2.13-3.89,10.416,10.416,0,0,1,.2-6.658,10.531,10.531,0,0,1,20.2,1.466,10.329,10.329,0,0,1-.82,6.748,8.228,8.228,0,0,1-1.573,2.306c-.028-.324-.036-.649-.087-.967a5.358,5.358,0,0,0-2.727-4c-.24-.138-.226-.133-.1-.383a5.474,5.474,0,0,0-.3-5.708,5.317,5.317,0,0,0-3.656-2.445A5.612,5.612,0,0,0,5.053,8.192a5.524,5.524,0,0,0,.479,3.87c.129.252.128.249-.124.4a5.408,5.408,0,0,0-2.474,3.033,6.076,6.076,0,0,0-.285,1.762c0,.064-.01.127-.015.191l-.056.011" transform="translate(0 0)" fill="#688cfc"/>
    <path id="Path_8" data-name="Path 8" d="M38.241,86.083c0,.306.011.613-.007.918a.4.4,0,0,1-.139.274,10.516,10.516,0,0,1-11.673.257.921.921,0,0,1-.548-.981c.067-.641-.01-1.3.1-1.932a3.652,3.652,0,0,1,2.2-2.751.268.268,0,0,1,.319.067,5.66,5.66,0,0,0,6.607.379c.194-.134.379-.284.579-.408a.315.315,0,0,1,.254-.032,3.757,3.757,0,0,1,2.3,3.582c0,.209,0,.417,0,.626" transform="translate(-21.522 -68.094)" fill="#688cfc"/>
    <path id="Path_9" data-name="Path 9" d="M43.351,33.1a3.913,3.913,0,0,1,3.916,3.914,3.919,3.919,0,0,1-7.837.018A3.908,3.908,0,0,1,43.351,33.1" transform="translate(-32.807 -27.539)" fill="#688cfc"/>
  </g>
</svg>
