<svg id="Group_3421" data-name="Group 3421" xmlns="http://www.w3.org/2000/svg" xmlns:xlink="http://www.w3.org/1999/xlink" width="30.479" height="30.482" viewBox="0 0 30.479 30.482">
  <defs>
    <clipPath id="clip-path">
      <rect id="Rectangle_101" data-name="Rectangle 101" width="30.479" height="30.482" fill="#5078fb"/>
    </clipPath>
  </defs>
  <g id="Group_3420" data-name="Group 3420" clip-path="url(#clip-path)">
    <path id="Path_134" data-name="Path 134" d="M30.479,13.991v2.526c-.015.06-.035.119-.044.18-.088.579-.143,1.165-.267,1.736a15.016,15.016,0,0,1-4.33,7.776,14.986,14.986,0,0,1-8.058,4.084c-.419.071-.842.125-1.263.187H13.991c-.367-.051-.735-.093-1.1-.153A15.079,15.079,0,0,1,4.261,25.8,15.209,15.209,0,0,1,.342,12.062a14.878,14.878,0,0,1,5-8.367A14.818,14.818,0,0,1,17.922.245a14.78,14.78,0,0,1,8.9,5.1,14.891,14.891,0,0,1,3.466,7.378c.071.42.125.843.187,1.264M15.147,20.345v0c.492,0,.985,0,1.477,0,.29,0,.368-.083.369-.367,0-.191-.008-.382,0-.572a2.307,2.307,0,0,1,.566-1.691c.358-.337.724-.665,1.082-1,.732-.692,1.507-1.345,2.18-2.091a4.224,4.224,0,0,0,.856-4.6,5.618,5.618,0,0,0-3.4-3.262,8.733,8.733,0,0,0-4.217-.439A6.319,6.319,0,0,0,9.881,8.445a5.5,5.5,0,0,0-1.364,3.23c-.022.251.069.38.289.408.92.114,1.84.232,2.761.337.6.068.608.06.759-.52a3.1,3.1,0,0,1,4.326-2.232,1.974,1.974,0,0,1,.7,3.406c-.655.553-1.313,1.1-1.953,1.673a5.756,5.756,0,0,0-1.791,2.364,7.748,7.748,0,0,0-.3,2.962c.01.208.15.276.345.275.5,0,1,0,1.5,0m.154,3.922c.436,0,.873,0,1.309,0,.256,0,.343-.089.344-.345q0-1.309,0-2.619c0-.251-.095-.346-.344-.347q-1.3,0-2.594,0c-.261,0-.358.1-.359.36q0,1.3,0,2.595c0,.263.091.354.36.356.428,0,.857,0,1.285,0" transform="translate(0 0)" fill="#5078fb"/>
  </g>
</svg>
