<svg id="Group_7" data-name="Group 7" xmlns="http://www.w3.org/2000/svg" xmlns:xlink="http://www.w3.org/1999/xlink" width="179.372" height="292.751" viewBox="0 0 179.372 292.751">
  <defs>
    <clipPath id="clip-path">
      <rect id="Rectangle_11" data-name="Rectangle 11" width="179.372" height="292.751" fill="rgba(255,255,255,0.93)"/>
    </clipPath>
  </defs>
  <g id="Group_6" data-name="Group 6" clip-path="url(#clip-path)">
    <path id="Path_3" data-name="Path 3" d="M1.55,28.075c-4.256,13.6.793,28.52,8.569,40.458s18.174,21.959,26.326,33.644,14.106,26.075,11.163,40.016C43.3,162.587,21,178.363,24.271,198.951c1.824,11.478,11.28,19.993,20.15,27.5Q73.395,251,102.371,275.539c11.892,10.075,26.842,20.83,41.672,16.035,15.831-5.121,21.125-24.432,24.006-40.821,6.6-37.56,13.227-75.55,10.815-113.611S164.089,60.352,137.408,33.1C112.554,7.718,17.862-24.075,1.55,28.075" transform="translate(0 0)" fill="rgba(255,255,255,0.93)"/>
  </g>
</svg>
