<svg xmlns="http://www.w3.org/2000/svg" xmlns:xlink="http://www.w3.org/1999/xlink" width="16.279" height="18.272" viewBox="0 0 16.279 18.272">
  <defs>
    <clipPath id="clip-path">
      <rect id="Rectangle_86" data-name="Rectangle 86" width="16.279" height="18.272" fill="#4d4f5c"/>
    </clipPath>
  </defs>
  <g id="Group_92" data-name="Group 92" clip-path="url(#clip-path)">
    <path id="Path_99" data-name="Path 99" d="M0,23.143q0-3.151,0-6.3a1.337,1.337,0,0,1,.3-.9,1.3,1.3,0,0,1,1.056-.442h9.161a1.316,1.316,0,0,1,1.076.456,1.189,1.189,0,0,1,.27.684c.009.109.013.218.013.328q0,6.163,0,12.326a3.04,3.04,0,0,1-.038.56,1.205,1.205,0,0,1-1.191.97H1.577c-.16,0-.32-.005-.479-.015a1.214,1.214,0,0,1-1.08-1.09C.008,29.5,0,29.282,0,29.066Q0,26.1,0,23.143m5.914-1.6v0h3.7a.421.421,0,0,0,.147-.026.569.569,0,0,0,.412-.594.54.54,0,0,0-.376-.556,1.235,1.235,0,0,0-.38-.039q-3.55,0-7.1,0a.9.9,0,0,0-.193.01.625.625,0,0,0-.462.472.612.612,0,0,0,.354.685.81.81,0,0,0,.387.047H5.914m.018,3.231H8.287a.59.59,0,0,0,.487-.24.584.584,0,0,0,.057-.657.6.6,0,0,0-.581-.33q-2.333,0-4.667,0a.613.613,0,1,0-.022,1.226H5.932" transform="translate(0 -12.546)" fill="#4d4f5c"/>
    <path id="Path_100" data-name="Path 100" d="M21.932,4.087a1.554,1.554,0,0,0-.088-.687,2.389,2.389,0,0,0-1.9-1.633,2.193,2.193,0,0,0-.418-.031q-4.02,0-8.041,0h-.516c0-.135,0-.266,0-.4a1.273,1.273,0,0,1,.276-.81A1.339,1.339,0,0,1,12.351,0c.118,0,.236,0,.353,0h9.748a1.634,1.634,0,0,1,.722.124A1.311,1.311,0,0,1,23.962,1.4q0,1.258,0,2.515v.253c-.128-.024-.255-.05-.383-.071a1.025,1.025,0,0,0-.167-.012H21.932Z" transform="translate(-8.879 0)" fill="#4d4f5c"/>
    <path id="Path_101" data-name="Path 101" d="M70.786,50.61c0,.029.006.051.006.072q0,2.574-.008,5.148c0,.216,0,.432,0,.648a1.3,1.3,0,0,1-1.05,1.249,4.437,4.437,0,0,1-.661.038c-.089,0-.179,0-.281,0v-.1q0-3.411,0-6.822c0-.125,0-.127.131-.127.359,0,.718.007,1.076,0,.215-.006.429-.035.643-.058a.877.877,0,0,0,.148-.045" transform="translate(-55.702 -40.982)" fill="#4d4f5c"/>
    <path id="Path_102" data-name="Path 102" d="M68.781,27.842h.91c.163,0,.326-.007.488,0a.422.422,0,0,1,.224.072c.211.167.411.347.614.523q.378.328.754.658a1.509,1.509,0,0,1,.114.112.276.276,0,0,1,0,.406c-.128.133-.268.255-.4.38-.315.291-.633.579-.944.875a.614.614,0,0,1-.466.186c-.407-.009-.813,0-1.22,0-.053,0-.073-.011-.073-.069q0-1.506,0-3.012v-.135" transform="translate(-55.696 -22.544)" fill="#4d4f5c"/>
  </g>
</svg>
