<svg xmlns="http://www.w3.org/2000/svg" xmlns:xlink="http://www.w3.org/1999/xlink" width="27.588" height="29.298" viewBox="0 0 27.588 29.298">
  <defs>
    <clipPath id="clip-path">
      <rect id="Rectangle_29" data-name="Rectangle 29" width="27.588" height="29.298" fill="#a8b5c8"/>
    </clipPath>
  </defs>
  <g id="Group_49" data-name="Group 49" transform="translate(0)">
    <g id="Group_48" data-name="Group 48" transform="translate(0 0)" clip-path="url(#clip-path)">
      <path id="Path_29" data-name="Path 29" d="M13.782.025c.51,0,1.022-.027,1.53.005A3.622,3.622,0,0,1,18.47,2.489a3.713,3.713,0,0,1,.21,1.3c-.011.311,0,.623,0,.935a.16.16,0,0,0,.1.161q.5.274.994.56a.178.178,0,0,0,.2.007c.332-.193.665-.386,1-.573a3.621,3.621,0,0,1,4.3.636,4.3,4.3,0,0,1,.665.892c.375.652.747,1.305,1.129,1.954a3.583,3.583,0,0,1,.519,1.878A3.634,3.634,0,0,1,26.91,12.3a4.215,4.215,0,0,1-1.482,1.253c-.2.109-.395.233-.594.345a.135.135,0,0,0-.078.158,3.682,3.682,0,0,1,0,1.2c-.006.037.041.1.08.125.317.194.642.375.958.571a3.652,3.652,0,0,1,1.673,2.267,3.532,3.532,0,0,1-.4,2.709q-.6,1.061-1.219,2.111a3.568,3.568,0,0,1-2.062,1.642,3.51,3.51,0,0,1-2.73-.23c-.365-.186-.716-.4-1.071-.608a.192.192,0,0,0-.224,0c-.33.2-.663.389-1,.577a.137.137,0,0,0-.083.14c0,.338,0,.675,0,1.013a3.636,3.636,0,0,1-1.1,2.647,3.352,3.352,0,0,1-2.258,1.04c-.928.042-1.859.036-2.789.026a3.5,3.5,0,0,1-1.91-.579,3.666,3.666,0,0,1-1.636-2.4,7.431,7.431,0,0,1-.073-1.37c0-.156.048-.342-.02-.458s-.257-.157-.391-.236c-.232-.135-.462-.271-.691-.41a.169.169,0,0,0-.2,0c-.342.2-.684.406-1.036.592a3.648,3.648,0,0,1-4.378-.78,6.477,6.477,0,0,1-.758-1.143c-.306-.527-.607-1.057-.915-1.583a3.547,3.547,0,0,1-.085-3.522,3.687,3.687,0,0,1,1.471-1.513c.281-.162.559-.328.84-.489a.153.153,0,0,0,.083-.182,3.246,3.246,0,0,1,0-1.123.172.172,0,0,0-.1-.208c-.327-.185-.655-.37-.972-.571A3.583,3.583,0,0,1,.133,11.1,3.893,3.893,0,0,1,0,10.266,4.4,4.4,0,0,1,.1,9.51,3.166,3.166,0,0,1,.5,8.41c.42-.735.825-1.482,1.277-2.2A3.57,3.57,0,0,1,5.264,4.471a3.3,3.3,0,0,1,1.422.45c.311.178.624.354.933.537a.168.168,0,0,0,.2,0c.338-.2.682-.391,1.02-.592a.2.2,0,0,0,.073-.142c.006-.355-.008-.71.005-1.065A3.7,3.7,0,0,1,12.665,0c.372,0,.745,0,1.117,0V.025m0,26.828h.636l.649,0a1.173,1.173,0,0,0,1.145-.975,4.369,4.369,0,0,0,.034-.5c.007-.571,0-1.142.012-1.713a1.122,1.122,0,0,1,.732-1.068,9.74,9.74,0,0,0,2.037-1.178,1.2,1.2,0,0,1,1.449-.073q.775.459,1.561.9a1.219,1.219,0,0,0,1.732-.441c.42-.7.82-1.413,1.224-2.123a1.182,1.182,0,0,0,.134-.791A1.206,1.206,0,0,0,24.5,18c-.529-.3-1.054-.612-1.582-.916a1.268,1.268,0,0,1-.625-.746,1.785,1.785,0,0,1-.025-.72,7.028,7.028,0,0,0,.022-1.734,3.312,3.312,0,0,1-.044-.646,1.2,1.2,0,0,1,.658-1.008c.525-.3,1.039-.621,1.571-.909a1.263,1.263,0,0,0,.486-1.764c-.154-.255-.3-.516-.447-.775-.248-.43-.488-.866-.748-1.29a1.222,1.222,0,0,0-1.711-.444c-.557.314-1.106.643-1.665.954a1.069,1.069,0,0,1-.971.1A2.806,2.806,0,0,1,19,7.867c-.149-.1-.287-.208-.433-.309a10.367,10.367,0,0,0-1.608-.864,1.11,1.11,0,0,1-.7-1.035c-.012-.545-.008-1.09-.017-1.636a3.8,3.8,0,0,0-.04-.645,1.1,1.1,0,0,0-1.024-.915c-.921-.026-1.843-.013-2.764-.006a1.041,1.041,0,0,0-.773.4,1.383,1.383,0,0,0-.307.979c0,.515.015,1.03,0,1.545a2.249,2.249,0,0,1-.094.674,1.3,1.3,0,0,1-.8.731,9.166,9.166,0,0,0-.982.5c-.356.212-.685.469-1.035.691a1.115,1.115,0,0,1-1.226.039q-.832-.477-1.662-.959a1.234,1.234,0,0,0-1.722.441C3.413,8.2,3,8.9,2.6,9.615a1.2,1.2,0,0,0,.142,1.392,2.189,2.189,0,0,0,.493.372c.514.311,1.043.6,1.552.915a1.169,1.169,0,0,1,.551,1.191,10.885,10.885,0,0,0-.036,1.9,5.494,5.494,0,0,1,.043.646,1.226,1.226,0,0,1-.679,1.05q-.8.46-1.6.93A1.232,1.232,0,0,0,2.6,19.695c.133.243.276.479.414.719.261.453.519.908.783,1.36a1.238,1.238,0,0,0,.7.59A1.3,1.3,0,0,0,5.6,22.215c.524-.31,1.052-.616,1.585-.91a1.191,1.191,0,0,1,1.3.058c.2.127.38.272.573.4a9.894,9.894,0,0,0,1.541.824,1.134,1.134,0,0,1,.722.968c.013.146.016.294.017.441,0,.563-.006,1.125.009,1.688a1.192,1.192,0,0,0,1.212,1.167c.407-.007.814,0,1.22,0" transform="translate(0 0.001)" fill="#a8b5c8"/>
      <path id="Path_30" data-name="Path 30" d="M40.764,37.827a6.095,6.095,0,1,1-5.981-6.089,6.094,6.094,0,0,1,5.981,6.089m-6.1-3.635a3.591,3.591,0,0,0-3.641,3.25A3.643,3.643,0,0,0,32.053,40.4a3.77,3.77,0,0,0,2.4,1.073,3.646,3.646,0,1,0,.211-7.285" transform="translate(-20.868 -23.178)" fill="#a8b5c8"/>
    </g>
  </g>
</svg>
