<svg id="Group_3406" data-name="Group 3406" xmlns="http://www.w3.org/2000/svg" xmlns:xlink="http://www.w3.org/1999/xlink" width="36.441" height="47.755" viewBox="0 0 36.441 47.755">
  <defs>
    <clipPath id="clip-path">
      <rect id="Rectangle_95" data-name="Rectangle 95" width="36.441" height="47.755" fill="#5078fb"/>
    </clipPath>
  </defs>
  <g id="Group_3403" data-name="Group 3403" clip-path="url(#clip-path)">
    <path id="Path_112" data-name="Path 112" d="M23.953.264c.043.886.071,1.734.132,2.58.02.278-.071.335-.326.334q-8.18-.006-16.36,0c-1.076,0-2.153,0-3.229.009A1.069,1.069,0,0,0,3,4.354q-.008,6.5-.009,13c0,1.645-.039,3.289-.041,4.934,0,1.266.039,2.532.04,3.8C3,31.931,3,37.775,2.981,43.62a1.265,1.265,0,0,0,1.36,1.344c6.3-.02,12.608-.012,18.912-.012q4.475,0,8.949,0a1.1,1.1,0,0,0,1.137-.616,1.774,1.774,0,0,0,.11-.688q.006-7.681,0-15.362,0-3.921,0-7.841,0-3.729-.01-7.458c0-.078.014-.157.022-.251l2.961.244a1.667,1.667,0,0,1,.017.19c0,1.655,0,3.311-.009,4.966-.008,1.618-.031,3.236-.041,4.855-.007,1.021-.006,2.042,0,3.063q.017,8.969.035,17.939c0,.642,0,1.285,0,1.927a1.907,1.907,0,0,1-2.016,2H10.119q-4.1,0-8.194,0a1.9,1.9,0,0,1-1.852-1.4A3.811,3.811,0,0,1,0,45.637q0-9.825.006-19.65c0-1.21.025-2.419.024-3.629Q.02,12.6,0,2.845c0-.235.011-.47.006-.705A1.884,1.884,0,0,1,1.937.223c.19,0,.38-.007.57-.007q10.189,0,20.377,0c.368,0,.736.03,1.069.044" transform="translate(0 -0.169)" fill="#5078fb"/>
    <path id="Path_113" data-name="Path 113" d="M127.7,11.163c-.876-.081-1.731-.158-2.585-.239-1.224-.116-2.447-.229-3.669-.356q-1.428-.149-2.853-.331c-.4-.051-.482-.171-.508-.631-.058-1.029-.107-2.059-.168-3.088q-.174-2.925-.358-5.849a.562.562,0,0,1,.283-.621.519.519,0,0,1,.629.181q1.638,1.68,3.273,3.364,2.025,2.1,4.038,4.209,1.164,1.214,2.331,2.424c.173.18.351.358.211.639a.592.592,0,0,1-.623.3" transform="translate(-91.94 0)" fill="#5078fb"/>
    <path id="Path_114" data-name="Path 114" d="M35.853,160.7c.732,0,1.465,0,2.2,0a1.556,1.556,0,0,1,1.742,1.738c0,.8,0,1.61-.008,2.414a1.56,1.56,0,0,1-.609,1.327,1.584,1.584,0,0,1-.968.3c-1.519,0-3.038.011-4.556-.006a1.5,1.5,0,0,1-1.606-1.639q0-1.275,0-2.55A1.482,1.482,0,0,1,33.6,160.7c.38-.006.759-.006,1.139-.007s.741,0,1.112,0Z" transform="translate(-25.06 -125.675)" fill="#5078fb"/>
    <path id="Path_115" data-name="Path 115" d="M103.377,160.7c.759,0,1.519-.009,2.278,0a1.481,1.481,0,0,1,1.586,1.161,1.54,1.54,0,0,1,.04.375c0,.886.006,1.772,0,2.658a1.487,1.487,0,0,1-1.583,1.581c-1.491.005-2.982,0-4.474,0a1.624,1.624,0,0,1-1.4-.636,1.66,1.66,0,0,1-.278-1c-.014-.868-.025-1.736-.006-2.6a1.517,1.517,0,0,1,1.562-1.534c.759-.011,1.518,0,2.278,0Z" transform="translate(-77.841 -125.675)" fill="#5078fb"/>
    <path id="Path_116" data-name="Path 116" d="M67.155,108.266h-6.67c-.108,0-.217-.005-.325-.015a.767.767,0,0,1-.739-.731.791.791,0,0,1,.624-.835,1.833,1.833,0,0,1,.4-.046q6.7,0,13.395,0a3.352,3.352,0,0,1,.566.049.8.8,0,0,1,.665.806.736.736,0,0,1-.709.75c-.595.032-1.191.027-1.787.028q-2.711,0-5.423,0Z" transform="translate(-46.471 -83.401)" fill="#5078fb"/>
    <path id="Path_117" data-name="Path 117" d="M67.248,131.945c2.27,0,4.54,0,6.81,0a1.744,1.744,0,0,1,.632.1.774.774,0,0,1,.41.767.755.755,0,0,1-.627.694,9.365,9.365,0,0,1-1.215.052q-6.363,0-12.725-.006a1.8,1.8,0,0,1-.727-.161.785.785,0,0,1,.334-1.442c.108-.009.217-.009.325-.009h6.783" transform="translate(-46.488 -103.194)" fill="#5078fb"/>
    <path id="Path_118" data-name="Path 118" d="M67.246,81.649q3.282,0,6.563,0a3.576,3.576,0,0,1,.646.049.77.77,0,0,1,.611.7.759.759,0,0,1-.491.767,1.5,1.5,0,0,1-.5.1q-6.888.008-13.777,0a.835.835,0,0,1-.9-.813.852.852,0,0,1,.876-.808c.813.012,1.627,0,2.441,0h4.529" transform="translate(-46.457 -63.857)" fill="#5078fb"/>
    <path id="Path_119" data-name="Path 119" d="M67.221,58.194q-3.336,0-6.673,0a2.637,2.637,0,0,1-.564-.053.752.752,0,0,1-.578-.782.773.773,0,0,1,.622-.723,2.511,2.511,0,0,1,.432-.036q6.74,0,13.48,0c.385,0,.785-.022,1.02.4a.775.775,0,0,1-.5,1.146,2.934,2.934,0,0,1-.566.043q-3.336,0-6.673,0" transform="translate(-46.462 -44.265)" fill="#5078fb"/>
    <path id="Path_120" data-name="Path 120" d="M41.95,131.957a1.109,1.109,0,0,1-1.078,1.126,1.108,1.108,0,1,1,1.078-1.126" transform="translate(-31.114 -102.352)" fill="#5078fb"/>
    <path id="Path_121" data-name="Path 121" d="M41.963,106.91a1.151,1.151,0,0,1-1.076,1.144,1.138,1.138,0,0,1-1.082-1.162,1.04,1.04,0,0,1,1.046-1.049,1.053,1.053,0,0,1,1.112,1.067" transform="translate(-31.131 -82.78)" fill="#5078fb"/>
    <path id="Path_122" data-name="Path 122" d="M41.95,56.74a1.011,1.011,0,0,1-1,1.058A1.107,1.107,0,0,1,39.8,56.689a1.076,1.076,0,0,1,1.07-1.068A1.03,1.03,0,0,1,41.95,56.74" transform="translate(-31.126 -43.501)" fill="#5078fb"/>
    <path id="Path_123" data-name="Path 123" d="M41.965,81.788a1.08,1.08,0,1,1-2.157-.032A1.082,1.082,0,0,1,40.894,80.7a1.058,1.058,0,0,1,1.072,1.088" transform="translate(-31.134 -63.116)" fill="#5078fb"/>
  </g>
</svg>
