<svg xmlns="http://www.w3.org/2000/svg" xmlns:xlink="http://www.w3.org/1999/xlink" width="22" height="17.523" viewBox="0 0 22 17.523">
  <defs>
    <clipPath id="clip-path">
      <rect id="Rectangle_112" data-name="Rectangle 112" width="22" height="17.523" fill="#5078fb"/>
    </clipPath>
  </defs>
  <g id="Group_3445" data-name="Group 3445" clip-path="url(#clip-path)">
    <path id="Path_152" data-name="Path 152" d="M0,.81A.577.577,0,0,0,.05.7.874.874,0,0,1,.922,0c2.185,0,4.37-.01,6.555.005a2.1,2.1,0,0,1,1.511.62q2.806,2.8,5.613,5.594c.878.875,1.761,1.744,2.635,2.623a.826.826,0,0,1-.013,1.3Q14.41,12.959,11.6,15.775c-.5.5-1,1.008-1.513,1.5a.774.774,0,0,1-1.13.012c-.111-.1-.218-.2-.322-.3Q7.265,15.618,5.9,14.251,3.318,11.669.737,9.087a2.358,2.358,0,0,1-.69-1.32A.453.453,0,0,0,0,7.66V.81m5.052,2.5a1.7,1.7,0,0,0-.012,3.4A1.676,1.676,0,0,0,6.754,5a1.664,1.664,0,0,0-1.7-1.694" transform="translate(0 0)" fill="#5078fb"/>
    <path id="Path_153" data-name="Path 153" d="M108.5.013,117.992,9.5l-7.225,7.3a.069.069,0,0,0,.02.035c.127.127.255.252.383.378a.824.824,0,0,0,1.3.007c.3-.294.593-.594.89-.891l5.958-5.96c.084-.084.17-.164.252-.25a.835.835,0,0,0,0-1.224q-1.838-1.846-3.684-3.684-2.257-2.258-4.511-4.518a2.246,2.246,0,0,0-1.625-.673c-.371-.005-.742,0-1.113,0Z" transform="translate(-97.84 -0.011)" fill="#5078fb"/>
  </g>
</svg>
