<svg xmlns="http://www.w3.org/2000/svg" xmlns:xlink="http://www.w3.org/1999/xlink" width="20.901" height="20.931" viewBox="0 0 20.901 20.931">
  <defs>
    <clipPath id="clip-path">
      <rect id="Rectangle_98" data-name="Rectangle 98" width="20.901" height="20.931" fill="#24c50d"/>
    </clipPath>
  </defs>
  <g id="Group_3416" data-name="Group 3416" clip-path="url(#clip-path)">
    <path id="Path_132" data-name="Path 132" d="M.011,11.048q0-.745,0-1.491c0-.163,0-.325,0-.488A1.454,1.454,0,0,1,.1,8.643a4.777,4.777,0,0,0,.1-.654A1.43,1.43,0,0,1,.263,7.78c.033-.1.067-.205.1-.308.09-.279.174-.56.273-.836a5.866,5.866,0,0,1,.25-.587c.144-.295.289-.59.455-.873.152-.259.327-.506.5-.752a9.5,9.5,0,0,1,.578-.766c.311-.354.639-.694.973-1.027A4.432,4.432,0,0,1,3.826,2.3c.1-.075.19-.157.282-.239A5.72,5.72,0,0,1,5.2,1.342c.2-.106.4-.2.6-.307.167-.089.33-.185.5-.276a.714.714,0,0,1,.1-.034c.135-.05.291-.042.4-.166.029-.033.1-.026.154-.04.306-.084.611-.17.917-.253.093-.025.189-.038.283-.06.161-.038.32-.091.483-.117A4.975,4.975,0,0,1,9.747.008c.235.015.473-.01.709-.008.41,0,.822-.006,1.23.026a4.492,4.492,0,0,1,1.2.207c.2.07.407.094.605.156.25.078.491.183.741.259a8.269,8.269,0,0,1,1.475.7,9.623,9.623,0,0,1,1.367.962A15.058,15.058,0,0,1,18.4,3.589a4.222,4.222,0,0,1,.37.492c.135.184.277.363.4.554.158.242.312.488.449.742.155.286.29.582.433.875.03.062.056.127.083.191a3.257,3.257,0,0,1,.184.458c.084.343.21.675.268,1.025a4.1,4.1,0,0,0,.172.744,2.489,2.489,0,0,1,.085.939c0,.172.045.345.049.518s-.021.361-.025.542c-.006.248.007.5-.011.746a3.855,3.855,0,0,1-.12.952c-.059.179-.058.377-.117.556a3.17,3.17,0,0,0-.15.666,1.124,1.124,0,0,1-.091.222c-.03.087-.047.179-.078.266-.025.071-.063.137-.1.206-.022.048-.047.095-.065.144-.042.111-.071.228-.122.334-.107.218-.218.434-.341.644a4.488,4.488,0,0,1-.348.6,4.561,4.561,0,0,0-.249.409c-.059.09-.132.171-.2.258a2.386,2.386,0,0,1-.289.388c-.106.094-.143.236-.276.313-.105.061-.172.187-.259.281s-.193.2-.29.3c-.119.122-.236.248-.361.365-.07.065-.154.115-.229.175a7.11,7.11,0,0,1-.572.451c-.135.087-.225.23-.4.274a1.265,1.265,0,0,0-.31.194,4.941,4.941,0,0,1-.662.4c-.187.079-.327.254-.547.262a.16.16,0,0,0-.11.06c-.07.1-.176.1-.277.119a1.864,1.864,0,0,0-.255.1c-.028.011-.055.028-.084.037-.159.046-.318.092-.477.135-.256.069-.513.134-.769.2a3.372,3.372,0,0,1-.522.145c-.358.036-.719.055-1.078.055-.759,0-1.518-.014-2.278-.026a1.062,1.062,0,0,1-.228-.041c-.217-.052-.435-.1-.65-.163-.253-.07-.5-.149-.756-.225l-.078-.024c-.253-.081-.513-.144-.757-.247-.3-.126-.585-.278-.87-.431a7.535,7.535,0,0,1-.674-.4,7.394,7.394,0,0,1-.983-.71c-.185-.176-.4-.317-.587-.493-.215-.206-.41-.432-.613-.651-.094-.1-.178-.214-.279-.307a3.332,3.332,0,0,1-.452-.6c-.154-.223-.323-.436-.471-.663-.1-.147-.164-.312-.247-.468-.034-.064-.072-.127-.108-.19a1.168,1.168,0,0,1-.06-.11C.957,15,.894,14.819.8,14.648a2.222,2.222,0,0,1-.269-.726.767.767,0,0,0-.076-.178c-.027-.063-.056-.125-.076-.191-.05-.162-.1-.325-.142-.489-.028-.108-.043-.219-.066-.328-.041-.2-.088-.4-.124-.6a2.81,2.81,0,0,1-.048-.4c-.008-.229,0-.458,0-.687h.01M5.742,9.087A.987.987,0,0,0,5.53,9.2c-.146.134-.279.283-.422.422s-.273.244-.4.375c-.092.094-.165.206-.255.3-.159.171-.328.334-.487.5s-.153.286.026.446c.029.026.056.054.083.082.424.431.846.864,1.273,1.292.515.516,1.038,1.024,1.553,1.54.427.428.849.862,1.274,1.292a2.548,2.548,0,0,0,.215.2.2.2,0,0,0,.266,0c.145-.15.288-.3.435-.449.385-.387.772-.772,1.157-1.159.3-.3.592-.6.89-.9.32-.32.644-.637.963-.957.3-.3.6-.608.9-.91.32-.32.645-.635.965-.956s.61-.627.92-.936c.372-.372.75-.737,1.122-1.11q.468-.468.926-.947A.352.352,0,0,0,17,7.162c.024-.129-.066-.2-.15-.282-.207-.2-.409-.4-.613-.6l-.553-.547c-.134-.133-.274-.261-.4-.4a.263.263,0,0,0-.382-.026c-.077.079-.141.171-.221.246s-.2.151-.294.237a4.893,4.893,0,0,0-.37.383,2.119,2.119,0,0,0-.342.389c-.01.019-.045.024-.069.037a.284.284,0,0,0-.068.041c-.1.1-.2.206-.3.306a4.176,4.176,0,0,0-.526.535c-.078.113-.2.159-.272.275a2.021,2.021,0,0,1-.346.336c-.083.08-.166.162-.243.247s-.144.224-.246.282a2.184,2.184,0,0,0-.354.322,2.3,2.3,0,0,0-.461.519c-.007.012-.025.018-.036.028-.1.084-.208.162-.3.252-.21.2-.414.409-.619.616a.461.461,0,0,0-.049.077.307.307,0,0,1-.045.065c-.109.1-.224.185-.328.286s-.222.238-.337.353c-.163.163-.331.322-.5.483,0,0,0,.009-.007.009-.04,0-.094.028-.117.011a5.4,5.4,0,0,1-.415-.352c-.117-.112-.213-.244-.329-.357-.223-.218-.456-.426-.678-.645-.142-.141-.264-.3-.406-.444s-.281-.25-.42-.376c-.021-.019-.027-.054-.046-.076-.113-.127-.2-.292-.423-.3" transform="translate(0 0)" fill="#24c50d"/>
  </g>
</svg>
