<svg id="Group_3429" data-name="Group 3429" xmlns="http://www.w3.org/2000/svg" xmlns:xlink="http://www.w3.org/1999/xlink" width="27.156" height="23.988" viewBox="0 0 27.156 23.988">
  <defs>
    <clipPath id="clip-path">
      <rect id="Rectangle_107" data-name="Rectangle 107" width="27.156" height="23.988" fill="#63646a"/>
    </clipPath>
  </defs>
  <g id="Group_3428" data-name="Group 3428" clip-path="url(#clip-path)">
    <path id="Path_136" data-name="Path 136" d="M76.387,12.217C80.046,5.672,85.317,1.347,92.813,0a1.226,1.226,0,0,1-.121.1,41.282,41.282,0,0,0-8.319,7.427,59.237,59.237,0,0,0-6.366,9.1,4.577,4.577,0,0,1-.859,1.045.948.948,0,0,1-1.488-.054c-.45-.473-.846-1-1.258-1.506-1.157-1.426-2.326-2.843-3.457-4.29-.456-.584-.825-1.237-1.228-1.863a1.514,1.514,0,0,1-.145-.322,1.182,1.182,0,0,1,.152-1.3,1.45,1.45,0,0,1,1.428-.471,5.422,5.422,0,0,1,2.387,1.306,17.708,17.708,0,0,1,2.643,2.786c.066.085.135.168.206.254" transform="translate(-65.657)" fill="#63646a"/>
    <path id="Path_137" data-name="Path 137" d="M11.206,237.741a13,13,0,0,0,6.078-1.467,6.512,6.512,0,0,0,2.088-1.724,3.526,3.526,0,0,0,.047-4.5,1.7,1.7,0,0,1-.114-.153.368.368,0,0,1,.048-.5.335.335,0,0,1,.471-.017c2.469,1.932,3.341,4.936,1.155,7.595a9.551,9.551,0,0,1-4.159,2.8,15.942,15.942,0,0,1-6.421.969,14.827,14.827,0,0,1-6.963-1.925,7.84,7.84,0,0,1-2.388-2.086,4.787,4.787,0,0,1,.164-6.172,15.169,15.169,0,0,1,1.114-1.12.358.358,0,0,1,.555-.028c.175.179.126.374-.02.563a3.5,3.5,0,0,0-.817,2.817,4.273,4.273,0,0,0,1.372,2.392,9.19,9.19,0,0,0,4.146,2.131,14.432,14.432,0,0,0,3.644.428" transform="translate(0 -216.773)" fill="#63646a"/>
  </g>
</svg>
